<svg width="654" height="254" viewBox="0 0 654 254" fill="none" xmlns="http://www.w3.org/2000/svg">
<g filter="url(#filter0_b_1_13636)">
<g clip-path="url(#clip0_1_13636)">
<path d="M639.151 267.554C646.981 281.115 642.335 298.457 628.773 306.287L192.91 557.932C179.348 565.762 162.007 561.115 154.177 547.554L14.1772 305.067C6.34732 291.505 10.9939 274.164 24.5556 266.334L460.419 14.6882C473.98 6.8583 491.322 11.5049 499.151 25.0666L639.151 267.554Z" fill="black" fill-opacity="0.1"/>
<path d="M639.151 267.554C646.981 281.115 642.335 298.457 628.773 306.287L192.91 557.932C179.348 565.762 162.007 561.115 154.177 547.554L14.1772 305.067C6.34732 291.505 10.9939 274.164 24.5556 266.334L460.419 14.6882C473.98 6.8583 491.322 11.5049 499.151 25.0666L639.151 267.554Z" fill="url(#paint0_linear_1_13636)"/>
<g filter="url(#filter1_f_1_13636)">
<path opacity="0.3" d="M621.175 179.71C660.325 247.518 637.092 334.225 569.283 373.374L498.397 250.596L621.175 179.71Z" fill="#EE46BC"/>
<path opacity="0.3" d="M569.283 373.374C501.475 412.523 414.768 389.29 375.619 321.482L498.397 250.596L569.283 373.374Z" fill="#EF6820"/>
<path opacity="0.3" d="M621.175 179.71L498.397 250.596L427.511 127.817C495.32 88.6681 582.026 111.901 621.175 179.71Z" fill="#2E90FA"/>
<path opacity="0.3" d="M498.397 250.596L375.619 321.482C336.47 253.673 359.703 166.967 427.511 127.817L498.397 250.596Z" fill="#17B26A"/>
</g>
<path d="M132.606 293.988C134.563 297.379 133.402 301.714 130.011 303.672L72.7147 336.752C69.3242 338.709 64.9889 337.548 63.0315 334.157L41.7656 297.324C39.8082 293.933 40.9698 289.598 44.3603 287.64L101.657 254.56C105.047 252.603 109.383 253.764 111.34 257.155L132.606 293.988Z" fill="white" fill-opacity="0.1"/>
<path d="M474.289 49.7988L482.866 64.6549L485.024 60.7081L486.675 63.5688L484.496 67.4788L481.881 68.9887L471.674 51.3086L474.289 49.7988ZM463.826 55.8558L465.132 58.1466L461.418 69.4913C461.112 70.3989 460.993 71.1661 461.06 71.793C461.12 72.4246 461.293 72.9901 461.581 73.4894C461.945 74.1196 462.411 74.6041 462.977 74.9427C463.548 75.2895 464.165 75.4685 464.826 75.4796C465.487 75.4907 466.137 75.312 466.775 74.9434C467.43 74.5653 467.926 74.0719 468.262 73.4631C468.594 72.8673 468.758 72.2329 468.751 71.56C468.744 70.8872 468.567 70.2584 468.219 69.6738L470.846 68.1568C471.508 69.3028 471.829 70.4543 471.809 71.6115C471.786 72.7816 471.46 73.8704 470.83 74.8778C470.205 75.8935 469.307 76.7392 468.137 77.415C467.024 78.0577 465.879 78.3805 464.702 78.3834C463.529 78.3945 462.437 78.1086 461.424 77.5258C460.402 76.9477 459.568 76.098 458.92 74.9766C458.453 74.1663 458.162 73.4173 458.049 72.7296C457.936 72.042 457.952 71.3338 458.099 70.6051C458.246 69.8765 458.476 69.0454 458.788 68.1121L461.668 59.3771L462.376 59.9508L453.278 65.2034L451.867 62.7601L463.826 55.8558ZM440.093 69.0997C440.969 68.5941 441.886 68.2828 442.844 68.166C443.807 68.0574 444.749 68.147 445.668 68.4348C446.579 68.7273 447.402 69.2178 448.138 69.9062L446.055 72.0257C445.378 71.4015 444.627 71.0549 443.801 70.9859C442.98 70.9251 442.212 71.1067 441.496 71.5307C440.855 71.9122 440.373 72.3921 440.052 72.9703C439.731 73.5485 439.576 74.1676 439.586 74.8276C439.6 75.4958 439.797 76.1572 440.175 76.8121C440.742 77.7943 441.517 78.4274 442.499 78.7114C443.473 79.0002 444.452 78.861 445.434 78.2939C445.712 78.1332 445.975 77.9269 446.222 77.6749C446.462 77.4277 446.67 77.1653 446.849 76.8879L449.221 78.219L446.167 87.3328L445.472 86.752L454.066 81.79L455.477 84.2333L444.844 90.372L443.433 87.9288L445.737 79.9526L446.243 80.7733C445.13 81.416 444.02 81.724 442.913 81.6972C441.811 81.6787 440.794 81.3714 439.86 80.7753C438.923 80.1922 438.152 79.3767 437.547 78.329C436.895 77.1995 436.582 76.0432 436.609 74.8602C436.627 73.6819 436.938 72.5856 437.542 71.5712C438.138 70.5615 438.988 69.7377 440.093 69.0997ZM420.007 81.1383L421.786 84.22L429.767 79.6124L431.17 82.0434L432.449 97.5282L429.515 99.2224L428.236 83.7376L423.19 86.651L425.954 91.4394L423.352 92.9422L420.587 88.1538L418.831 89.1675L417.428 86.7365L419.183 85.7228L417.404 82.6411L420.007 81.1383ZM397.336 94.2272L405.914 109.083L408.071 105.136L409.723 107.997L407.544 111.907L404.929 113.417L394.721 95.737L397.336 94.2272ZM386.874 100.284L388.18 102.575L384.465 113.92C384.16 114.827 384.041 115.595 384.108 116.221C384.167 116.853 384.341 117.418 384.629 117.918C384.993 118.548 385.458 119.032 386.025 119.371C386.596 119.718 387.212 119.897 387.874 119.908C388.535 119.919 389.185 119.74 389.823 119.372C390.478 118.994 390.973 118.5 391.31 117.892C391.642 117.296 391.805 116.661 391.799 115.988C391.792 115.316 391.615 114.687 391.266 114.102L393.894 112.585C394.555 113.731 394.876 114.883 394.857 116.04C394.834 117.21 394.508 118.299 393.878 119.306C393.253 120.322 392.355 121.168 391.185 121.843C390.072 122.486 388.926 122.809 387.749 122.812C386.577 122.823 385.484 122.537 384.471 121.954C383.45 121.376 382.616 120.526 381.968 119.405C381.5 118.595 381.21 117.846 381.097 117.158C380.983 116.47 381 115.762 381.147 115.034C381.294 114.305 381.523 113.474 381.836 112.54L384.716 103.806L385.424 104.379L376.326 109.632L374.915 107.189L386.874 100.284ZM363.141 113.528C364.016 113.022 364.934 112.711 365.892 112.594C366.855 112.486 367.796 112.575 368.716 112.863C369.627 113.156 370.45 113.646 371.186 114.335L369.103 116.454C368.426 115.83 367.675 115.483 366.849 115.414C366.028 115.353 365.26 115.535 364.544 115.959C363.902 116.341 363.421 116.821 363.1 117.399C362.779 117.977 362.623 118.596 362.633 119.256C362.648 119.924 362.844 120.586 363.222 121.24C363.79 122.223 364.564 122.856 365.547 123.14C366.521 123.429 367.499 123.289 368.482 122.722C368.76 122.562 369.023 122.355 369.27 122.103C369.509 121.856 369.718 121.594 369.896 121.316L372.269 122.647L369.215 131.761L368.519 131.18L377.114 126.218L378.524 128.662L367.892 134.8L366.481 132.357L368.785 124.381L369.291 125.202C368.178 125.844 367.068 126.152 365.961 126.126C364.859 126.107 363.841 125.8 362.908 125.204C361.971 124.621 361.2 123.805 360.595 122.757C359.943 121.628 359.63 120.472 359.656 119.289C359.675 118.11 359.986 117.014 360.59 116C361.185 114.99 362.036 114.166 363.141 113.528ZM343.055 125.567L344.834 128.648L352.815 124.041L354.218 126.472L355.497 141.957L352.563 143.651L351.284 128.166L346.238 131.079L349.002 135.868L346.399 137.371L343.635 132.582L341.879 133.596L340.475 131.165L342.231 130.151L340.452 127.069L343.055 125.567ZM320.384 138.656L328.961 153.512L331.119 149.565L332.771 152.426L330.592 156.336L327.977 157.846L317.769 140.165L320.384 138.656ZM309.921 144.713L311.228 147.003L307.513 158.348C307.208 159.256 307.089 160.023 307.156 160.65C307.215 161.281 307.389 161.847 307.677 162.346C308.041 162.976 308.506 163.461 309.073 163.8C309.644 164.146 310.26 164.325 310.921 164.336C311.583 164.348 312.233 164.169 312.871 163.8C313.526 163.422 314.021 162.929 314.357 162.32C314.69 161.724 314.853 161.09 314.846 160.417C314.84 159.744 314.663 159.115 314.314 158.531L316.942 157.014C317.603 158.16 317.924 159.311 317.905 160.468C317.882 161.638 317.555 162.727 316.926 163.735C316.301 164.75 315.403 165.596 314.232 166.272C313.119 166.915 311.974 167.237 310.797 167.24C309.625 167.251 308.532 166.965 307.519 166.383C306.498 165.805 305.663 164.955 305.016 163.833C304.548 163.023 304.258 162.274 304.144 161.586C304.031 160.899 304.048 160.191 304.195 159.462C304.341 158.733 304.571 157.902 304.883 156.969L307.764 148.234L308.471 148.808L299.373 154.06L297.963 151.617L309.921 144.713ZM286.188 157.957C287.064 157.451 287.981 157.14 288.94 157.023C289.903 156.914 290.844 157.004 291.763 157.292C292.674 157.584 293.498 158.075 294.234 158.763L292.15 160.882C291.474 160.258 290.722 159.912 289.897 159.843C289.076 159.782 288.308 159.963 287.592 160.388C286.95 160.769 286.469 161.249 286.148 161.827C285.827 162.405 285.671 163.024 285.681 163.684C285.696 164.353 285.892 165.014 286.27 165.669C286.837 166.651 287.612 167.284 288.595 167.568C289.569 167.857 290.547 167.718 291.529 167.151C291.808 166.99 292.071 166.784 292.318 166.532C292.557 166.284 292.766 166.022 292.944 165.745L295.317 167.076L292.263 176.19L291.567 175.609L300.162 170.647L301.572 173.09L290.94 179.229L289.529 176.786L291.832 168.809L292.339 169.63C291.226 170.273 290.116 170.581 289.009 170.554C287.907 170.536 286.889 170.228 285.956 169.632C285.019 169.049 284.248 168.234 283.643 167.186C282.991 166.056 282.678 164.9 282.704 163.717C282.722 162.539 283.033 161.442 283.637 160.428C284.233 159.418 285.083 158.594 286.188 157.957ZM266.103 169.995L267.882 173.077L275.862 168.469L277.266 170.9L278.545 186.385L275.61 188.079L274.332 172.594L269.285 175.508L272.05 180.296L269.447 181.799L266.682 177.011L264.927 178.024L263.523 175.593L265.279 174.58L263.5 171.498L266.103 169.995ZM243.432 183.084L252.009 197.94L254.167 193.993L255.818 196.854L253.64 200.764L251.024 202.274L240.817 184.594L243.432 183.084ZM232.969 189.141L234.275 191.432L230.561 202.777C230.255 203.684 230.136 204.451 230.204 205.078C230.263 205.71 230.436 206.275 230.725 206.775C231.089 207.405 231.554 207.889 232.12 208.228C232.692 208.575 233.308 208.754 233.969 208.765C234.63 208.776 235.28 208.597 235.919 208.229C236.574 207.851 237.069 207.357 237.405 206.748C237.738 206.153 237.901 205.518 237.894 204.845C237.888 204.172 237.71 203.544 237.362 202.959L239.989 201.442C240.651 202.588 240.972 203.74 240.952 204.897C240.93 206.067 240.603 207.156 239.973 208.163C239.348 209.179 238.451 210.024 237.28 210.7C236.167 211.343 235.022 211.666 233.845 211.669C232.673 211.68 231.58 211.394 230.567 210.811C229.546 210.233 228.711 209.383 228.064 208.262C227.596 207.451 227.305 206.702 227.192 206.015C227.079 205.327 227.096 204.619 227.242 203.89C227.389 203.162 227.619 202.331 227.931 201.397L230.811 192.662L231.519 193.236L222.421 198.489L221.011 196.045L232.969 189.141ZM209.236 202.385C210.112 201.879 211.029 201.568 211.988 201.451C212.951 201.343 213.892 201.432 214.811 201.72C215.722 202.013 216.546 202.503 217.281 203.191L215.198 205.311C214.521 204.687 213.77 204.34 212.944 204.271C212.124 204.21 211.355 204.392 210.64 204.816C209.998 205.197 209.516 205.677 209.195 206.256C208.874 206.834 208.719 207.453 208.729 208.113C208.744 208.781 208.94 209.442 209.318 210.097C209.885 211.079 210.66 211.713 211.642 211.997C212.617 212.285 213.595 212.146 214.577 211.579C214.855 211.418 215.118 211.212 215.366 210.96C215.605 210.713 215.814 210.451 215.992 210.173L218.365 211.504L215.31 220.618L214.615 220.037L223.209 215.075L224.62 217.519L213.987 223.657L212.577 221.214L214.88 213.238L215.387 214.058C214.273 214.701 213.163 215.009 212.057 214.982C210.955 214.964 209.937 214.657 209.003 214.061C208.066 213.477 207.295 212.662 206.691 211.614C206.038 210.485 205.726 209.328 205.752 208.145C205.77 206.967 206.081 205.871 206.685 204.856C207.281 203.847 208.131 203.023 209.236 202.385ZM189.15 214.423L190.93 217.505L198.91 212.898L200.314 215.329L201.593 230.813L198.658 232.508L197.379 217.023L192.333 219.936L195.098 224.725L192.495 226.227L189.73 221.439L187.975 222.453L186.571 220.022L188.327 219.008L186.547 215.926L189.15 214.423Z" fill="white"/>
<path d="M496.872 93.586C498.198 92.8204 499.494 92.4568 500.761 92.4951C502.03 92.5396 503.213 92.937 504.31 93.6874C505.4 94.4413 506.34 95.5028 507.13 96.8717C507.921 98.2407 508.37 99.5857 508.478 100.907C508.58 102.231 508.33 103.451 507.731 104.567C507.134 105.689 506.173 106.633 504.847 107.399C503.318 108.281 501.83 108.624 500.383 108.429C498.93 108.236 497.629 107.6 496.481 106.519L498.131 104.867C498.924 105.645 499.804 106.107 500.772 106.252C501.733 106.401 502.739 106.172 503.789 105.566C504.728 105.024 505.389 104.36 505.77 103.575C506.152 102.79 506.282 101.925 506.162 100.979C506.036 100.037 505.68 99.0596 505.095 98.0467C504.517 97.0302 503.851 96.2317 503.099 95.6513C502.34 95.0744 501.525 94.7549 500.654 94.6928C499.777 94.6343 498.869 94.8762 497.93 95.4184C496.88 96.0245 496.18 96.7811 495.827 97.6883C495.473 98.6052 495.432 99.5985 495.706 100.668L493.451 101.27C493.089 99.736 493.188 98.2914 493.748 96.9366C494.302 95.5854 495.344 94.4685 496.872 93.586ZM489.473 98.2264L492.819 113.975L490.047 115.575L478.082 104.803L480.08 103.649L491.035 113.458L490.538 113.745L487.475 99.38L489.473 98.2264ZM488.963 102.511L490.005 104.316L483.08 108.314L482.038 106.509L488.963 102.511ZM475.509 106.288L483.165 119.548L481.213 120.675L468.995 114.592L474.684 124.445L472.732 125.572L465.076 112.312L467.028 111.185L479.251 117.278L473.557 107.415L475.509 106.288ZM461.585 114.327L469.241 127.587L465.088 129.985C464.965 130.056 464.736 130.184 464.401 130.369C464.06 130.558 463.723 130.72 463.392 130.854C462.28 131.324 461.194 131.456 460.133 131.25C459.067 131.047 458.079 130.577 457.171 129.841C456.267 129.111 455.49 128.184 454.842 127.061C454.19 125.931 453.772 124.789 453.588 123.635C453.408 122.486 453.497 121.399 453.854 120.374C454.21 119.359 454.869 118.487 455.832 117.76C456.114 117.539 456.422 117.329 456.756 117.128C457.084 116.93 457.309 116.796 457.432 116.725L461.585 114.327ZM460.672 117.298L458.49 118.558C458.281 118.678 458.036 118.828 457.755 119.007C457.473 119.185 457.233 119.357 457.033 119.522C456.432 120.04 456.054 120.647 455.899 121.343C455.741 122.048 455.757 122.791 455.947 123.574C456.137 124.356 456.45 125.125 456.886 125.88C457.336 126.66 457.854 127.323 458.439 127.869C459.028 128.421 459.664 128.799 460.346 129.003C461.026 129.216 461.733 129.192 462.466 128.932C462.712 128.848 462.984 128.724 463.283 128.56C463.578 128.405 463.827 128.27 464.03 128.153L466.212 126.893L460.672 117.298ZM447.765 122.307L455.42 135.567L453.496 136.678L445.84 123.418L447.765 122.307ZM436.46 128.465C437.786 127.699 439.082 127.336 440.349 127.374C441.619 127.418 442.802 127.816 443.898 128.566C444.988 129.32 445.928 130.382 446.718 131.751C447.509 133.12 447.958 134.465 448.066 135.786C448.168 137.11 447.919 138.33 447.319 139.446C446.722 140.568 445.761 141.512 444.435 142.277C442.906 143.16 441.418 143.503 439.971 143.308C438.518 143.115 437.217 142.479 436.069 141.398L437.719 139.746C438.512 140.524 439.392 140.986 440.36 141.131C441.321 141.28 442.327 141.051 443.377 140.445C444.316 139.903 444.977 139.239 445.358 138.454C445.74 137.669 445.871 136.803 445.75 135.858C445.624 134.916 445.268 133.938 444.683 132.926C444.105 131.909 443.439 131.111 442.687 130.53C441.928 129.953 441.113 129.634 440.242 129.572C439.366 129.513 438.457 129.755 437.518 130.297C436.468 130.903 435.768 131.66 435.416 132.567C435.061 133.484 435.02 134.477 435.294 135.547L433.039 136.149C432.677 134.615 432.776 133.17 433.336 131.815C433.89 130.464 434.932 129.347 436.46 128.465ZM427.78 133.845L435.436 147.105L426.964 151.996L425.917 150.182L432.464 146.402L430.316 142.682L424.874 145.824L423.827 144.009L429.269 140.867L426.903 136.77L420.356 140.55L419.309 138.736L427.78 133.845ZM408.76 144.826L420.265 155.864L418.248 157.028L409.668 148.611L412.663 160.241L410.642 161.419L402.062 153.002L405.062 164.641L403.036 165.811L399.239 150.323L401.154 149.217L409.725 157.492L406.845 145.932L408.76 144.826ZM387.469 156.75C388.507 156.151 389.547 155.833 390.589 155.796C391.629 155.768 392.595 156.009 393.486 156.517C394.381 157.032 395.13 157.811 395.732 158.855L400.565 167.225L398.618 168.362L393.838 160.083C393.512 159.518 393.13 159.076 392.692 158.756C392.253 158.436 391.791 158.224 391.305 158.12C390.82 158.016 390.338 158.004 389.86 158.083C389.376 158.166 388.928 158.326 388.517 158.564C388.099 158.805 387.737 159.112 387.429 159.487C387.118 159.87 386.887 160.299 386.734 160.772C386.581 161.244 386.537 161.749 386.601 162.285C386.659 162.825 386.849 163.374 387.172 163.932L391.951 172.211L389.999 173.338L385.161 164.958C384.562 163.921 384.263 162.886 384.265 161.854C384.266 160.821 384.542 159.86 385.092 158.969C385.639 158.089 386.432 157.349 387.469 156.75Z" fill="white"/>
<path d="M258.598 231.154C259.501 230.633 260.412 230.368 261.333 230.361C262.257 230.359 263.118 230.59 263.918 231.054C264.711 231.52 265.369 232.205 265.89 233.108L268.527 237.675C269.048 238.577 269.312 239.489 269.319 240.409C269.321 241.333 269.088 242.192 268.621 242.986C268.158 243.785 267.475 244.445 266.573 244.966C265.67 245.487 264.757 245.749 263.833 245.75C262.912 245.758 262.056 245.528 261.262 245.061C260.463 244.598 259.802 243.915 259.281 243.013L256.644 238.445C256.123 237.543 255.862 236.63 255.861 235.705C255.853 234.785 256.081 233.925 256.544 233.125C257.011 232.332 257.696 231.675 258.598 231.154ZM259.661 232.995C259.17 233.279 258.793 233.653 258.528 234.116C258.261 234.59 258.123 235.095 258.114 235.632C258.109 236.176 258.25 236.696 258.537 237.193L261.322 242.018C261.606 242.509 261.983 242.885 262.452 243.146C262.926 243.413 263.432 243.546 263.972 243.546C264.51 243.555 265.024 243.417 265.515 243.134C266.006 242.85 266.385 242.472 266.652 241.999C266.916 241.535 267.051 241.031 267.057 240.488C267.066 239.951 266.928 239.437 266.645 238.945L263.859 234.12C263.572 233.623 263.192 233.241 262.718 232.974C262.249 232.713 261.745 232.578 261.208 232.569C260.668 232.57 260.152 232.712 259.661 232.995ZM245.926 238.47C246.785 237.974 247.675 237.73 248.597 237.738C249.522 237.753 250.393 237.999 251.209 238.477C252.019 238.959 252.686 239.654 253.211 240.563L255.651 244.789C256.208 245.753 256.497 246.715 256.52 247.676C256.537 248.641 256.306 249.531 255.828 250.347C255.343 251.167 254.635 251.847 253.701 252.385C253.002 252.789 252.269 253.037 251.502 253.127C250.736 253.218 249.978 253.131 249.229 252.868L249.877 250.738C250.317 250.918 250.782 250.993 251.272 250.964C251.76 250.944 252.219 250.81 252.649 250.562C253.201 250.243 253.61 249.831 253.875 249.326C254.144 248.827 254.275 248.297 254.27 247.735C254.259 247.177 254.113 246.655 253.833 246.17L252.43 243.739L253.052 243.945C252.958 244.662 252.713 245.328 252.314 245.942C251.916 246.557 251.395 247.05 250.75 247.422C249.928 247.897 249.082 248.127 248.214 248.113C247.344 248.108 246.535 247.883 245.787 247.439C245.034 246.999 244.419 246.367 243.944 245.544C243.466 244.716 243.24 243.843 243.268 242.927C243.293 242.02 243.537 241.167 244 240.367C244.461 239.578 245.103 238.945 245.926 238.47ZM246.994 240.321C246.515 240.598 246.147 240.966 245.889 241.426C245.63 241.886 245.498 242.38 245.492 242.908C245.485 243.435 245.62 243.938 245.897 244.417C246.173 244.896 246.541 245.265 247.001 245.523C247.455 245.784 247.946 245.919 248.474 245.925C249.001 245.931 249.505 245.796 249.983 245.52C250.462 245.244 250.834 244.873 251.098 244.41C251.356 243.95 251.489 243.456 251.495 242.928C251.502 242.401 251.367 241.898 251.09 241.419C250.817 240.946 250.451 240.581 249.991 240.322C249.53 240.064 249.035 239.929 248.504 239.916C247.976 239.91 247.473 240.045 246.994 240.321ZM242.588 258.446L240.645 259.568L236.525 244.266L238.468 243.144L242.588 258.446ZM230.039 248.023L231.019 249.741L228.233 258.25C228.004 258.93 227.914 259.506 227.965 259.976C228.009 260.45 228.139 260.874 228.356 261.248C228.629 261.721 228.977 262.084 229.402 262.338C229.831 262.598 230.293 262.732 230.789 262.741C231.285 262.749 231.772 262.615 232.251 262.339C232.742 262.055 233.114 261.685 233.366 261.228C233.615 260.782 233.738 260.306 233.733 259.801C233.728 259.296 233.595 258.825 233.333 258.386L235.304 257.249C235.8 258.108 236.041 258.972 236.026 259.84C236.009 260.717 235.765 261.534 235.292 262.289C234.823 263.051 234.15 263.686 233.272 264.192C232.437 264.674 231.579 264.916 230.696 264.919C229.817 264.927 228.997 264.713 228.237 264.275C227.471 263.842 226.845 263.205 226.36 262.364C226.009 261.756 225.791 261.194 225.706 260.678C225.621 260.163 225.634 259.631 225.744 259.085C225.854 258.538 226.026 257.915 226.26 257.215L228.421 250.664L228.951 251.094L222.128 255.034L221.07 253.201L230.039 248.023ZM213.531 257.173C214.396 256.674 215.263 256.402 216.131 256.36C216.996 256.327 217.798 256.511 218.536 256.911C219.269 257.315 219.87 257.925 220.342 258.741C220.781 259.503 221.006 260.302 221.015 261.14C221.024 261.978 220.78 262.782 220.283 263.552L219.937 262.867C220.704 262.891 221.391 263.075 221.999 263.42C222.605 263.774 223.096 264.277 223.471 264.928C223.907 265.683 224.11 266.437 224.079 267.192C224.048 267.946 223.812 268.651 223.372 269.307C222.926 269.965 222.304 270.525 221.506 270.986C220.708 271.447 219.915 271.704 219.127 271.757C218.34 271.811 217.611 271.663 216.942 271.312C216.274 270.962 215.721 270.409 215.285 269.654C214.909 269.003 214.715 268.334 214.703 267.645C214.69 266.957 214.878 266.263 215.268 265.563L215.668 266.191C214.77 266.252 213.955 266.067 213.224 265.638C212.497 265.215 211.914 264.622 211.474 263.861C211.003 263.045 210.778 262.217 210.801 261.377C210.824 260.537 211.069 259.749 211.536 259.013C212.006 258.283 212.671 257.67 213.531 257.173ZM214.589 259.006C213.877 259.417 213.411 259.943 213.193 260.585C212.977 261.233 213.086 261.932 213.518 262.681C213.951 263.43 214.502 263.873 215.17 264.011C215.837 264.158 216.529 264.025 217.247 263.61C217.965 263.195 218.43 262.661 218.642 262.007C218.851 261.362 218.739 260.665 218.307 259.916C217.874 259.167 217.324 258.724 216.655 258.586C215.99 258.455 215.301 258.595 214.589 259.006ZM218.31 265.452C217.703 265.803 217.298 266.236 217.098 266.754C216.894 267.28 216.971 267.854 217.329 268.474C217.687 269.094 218.145 269.447 218.703 269.534C219.258 269.631 219.84 269.504 220.448 269.153C221.055 268.803 221.459 268.361 221.659 267.828C221.862 267.301 221.785 266.728 221.427 266.108C221.069 265.488 220.611 265.134 220.053 265.047C219.499 264.966 218.918 265.101 218.31 265.452Z" fill="white"/>
</g>
<path d="M638.384 267.997C645.969 281.135 641.468 297.934 628.33 305.519L192.467 557.165C179.329 564.75 162.53 560.249 154.945 547.111L14.9445 304.624C7.35935 291.486 11.8608 274.686 24.9987 267.101L460.862 15.4555C473.999 7.87035 490.799 12.3717 498.384 25.5096L638.384 267.997Z" stroke="url(#paint1_linear_1_13636)" stroke-opacity="0.3" stroke-width="1.77215"/>
</g>
<defs>
<filter id="filter0_b_1_13636" x="-21.2659" y="-20.7549" width="695.86" height="614.13" filterUnits="userSpaceOnUse" color-interpolation-filters="sRGB">
<feFlood flood-opacity="0" result="BackgroundImageFix"/>
<feGaussianBlur in="BackgroundImageFix" stdDeviation="10.6329"/>
<feComposite in2="SourceAlpha" operator="in" result="effect1_backgroundBlur_1_13636"/>
<feBlend mode="normal" in="SourceGraphic" in2="effect1_backgroundBlur_1_13636" result="shape"/>
</filter>
<filter id="filter1_f_1_13636" x="77.8973" y="-169.904" width="841" height="841" filterUnits="userSpaceOnUse" color-interpolation-filters="sRGB">
<feFlood flood-opacity="0" result="BackgroundImageFix"/>
<feBlend mode="normal" in="SourceGraphic" in2="BackgroundImageFix" result="shape"/>
<feGaussianBlur stdDeviation="113.418" result="effect1_foregroundBlur_1_13636"/>
</filter>
<linearGradient id="paint0_linear_1_13636" x1="629.099" y1="306.098" x2="-73.291" y2="243.381" gradientUnits="userSpaceOnUse">
<stop stop-color="white" stop-opacity="0.3"/>
<stop offset="1" stop-color="white" stop-opacity="0"/>
</linearGradient>
<linearGradient id="paint1_linear_1_13636" x1="646.22" y1="279.796" x2="0.871269" y2="256.438" gradientUnits="userSpaceOnUse">
<stop stop-color="white"/>
<stop offset="1" stop-color="white" stop-opacity="0.2"/>
</linearGradient>
<clipPath id="clip0_1_13636">
<path d="M639.151 267.554C646.981 281.115 642.335 298.457 628.773 306.287L192.91 557.932C179.348 565.762 162.007 561.115 154.177 547.554L14.1772 305.067C6.34732 291.505 10.9939 274.164 24.5556 266.334L460.419 14.6882C473.98 6.8583 491.322 11.5049 499.151 25.0666L639.151 267.554Z" fill="white"/>
</clipPath>
</defs>
</svg>
