<svg width="654" height="254" viewBox="0 0 654 254" fill="none" xmlns="http://www.w3.org/2000/svg">
<g filter="url(#filter0_b_1_13632)">
<g clip-path="url(#clip0_1_13632)">
<path d="M154.177 25.0664C162.007 11.5047 179.348 6.8581 192.91 14.688L628.773 266.334C642.335 274.163 646.981 291.505 639.151 305.066L499.151 547.554C491.322 561.115 473.98 565.762 460.419 557.932L24.5557 306.286C10.994 298.457 6.34741 281.115 14.1773 267.554L154.177 25.0664Z" fill="black" fill-opacity="0.1"/>
<path d="M154.177 25.0664C162.007 11.5047 179.348 6.8581 192.91 14.688L628.773 266.334C642.335 274.163 646.981 291.505 639.151 305.066L499.151 547.554C491.322 561.115 473.98 565.762 460.419 557.932L24.5557 306.286C10.994 298.457 6.34741 281.115 14.1773 267.554L154.177 25.0664Z" fill="url(#paint0_linear_1_13632)"/>
<g filter="url(#filter1_f_1_13632)">
<path opacity="0.3" d="M87.09 84.5562C126.239 16.7476 212.946 -6.48533 280.754 32.664L209.868 155.442L87.09 84.5562Z" fill="#EE46BC"/>
<path opacity="0.3" d="M280.754 32.664C348.563 71.8133 371.796 158.52 332.647 226.328L209.868 155.442L280.754 32.664Z" fill="#EF6820"/>
<path opacity="0.3" d="M87.09 84.5562L209.868 155.442L138.982 278.221C71.1736 239.071 47.9407 152.365 87.09 84.5562Z" fill="#2E90FA"/>
<path opacity="0.3" d="M209.868 155.442L332.647 226.328C293.497 294.137 206.791 317.37 138.982 278.221L209.868 155.442Z" fill="#17B26A"/>
</g>
<path d="M69.2816 231.796L76.9373 218.536L82.2966 221.63C82.4255 221.705 82.5815 221.803 82.7648 221.925C82.9515 222.041 83.122 222.164 83.2762 222.294C83.9455 222.836 84.4141 223.442 84.6819 224.112C84.9558 224.786 85.0455 225.489 84.9508 226.22C84.8561 226.951 84.6032 227.673 84.192 228.385C83.7773 229.103 83.2771 229.686 82.6913 230.133C82.1055 230.581 81.4523 230.855 80.7318 230.954C80.0173 231.057 79.2581 230.955 78.4541 230.646C78.2681 230.571 78.0733 230.483 77.8697 230.382C77.6723 230.285 77.5122 230.2 77.3895 230.13L73.9547 228.146L71.2061 232.907L69.2816 231.796ZM75.0074 226.323L78.3685 228.264C78.4912 228.335 78.6298 228.406 78.7843 228.479C78.9448 228.556 79.1015 228.617 79.2543 228.665C79.7003 228.799 80.1139 228.813 80.4951 228.706C80.8799 228.592 81.2183 228.403 81.5106 228.138C81.8028 227.873 82.0428 227.578 82.2306 227.252C82.4185 226.927 82.5524 226.574 82.6323 226.195C82.7158 225.809 82.7087 225.425 82.6111 225.041C82.517 224.651 82.3001 224.297 81.9603 223.978C81.8466 223.863 81.7165 223.755 81.5701 223.654C81.4298 223.557 81.2983 223.473 81.1755 223.402L77.8145 221.461L75.0074 226.323ZM81.7489 238.994L89.4046 225.734L91.3291 226.845L88.0276 232.564L94.6576 236.391L97.9591 230.673L99.8929 231.789L92.2372 245.049L90.3034 243.933L93.6103 238.205L86.9802 234.378L83.6734 240.105L81.7489 238.994ZM101.12 250.546C99.7936 249.781 98.8306 248.84 98.2307 247.724C97.6343 246.602 97.3869 245.379 97.4887 244.054C97.5965 242.733 98.0457 241.388 98.836 240.019C99.6264 238.65 100.567 237.589 101.657 236.835C102.753 236.085 103.934 235.69 105.201 235.652C106.47 235.607 107.768 235.968 109.094 236.734C110.414 237.496 111.372 238.438 111.969 239.559C112.575 240.679 112.824 241.899 112.716 243.22C112.608 244.541 112.159 245.886 111.369 247.255C110.578 248.624 109.638 249.685 108.548 250.439C107.458 251.193 106.275 251.591 104.999 251.632C103.733 251.67 102.439 251.308 101.12 250.546ZM102.178 248.714C103.11 249.268 104.008 249.513 104.873 249.447C105.747 249.379 106.56 249.055 107.313 248.474C108.069 247.887 108.74 247.088 109.324 246.075C109.909 245.062 110.263 244.087 110.386 243.152C110.512 242.21 110.385 241.346 110.003 240.561C109.628 239.779 108.972 239.114 108.036 238.566C107.104 238.011 106.203 237.765 105.332 237.827C104.467 237.893 103.657 238.219 102.901 238.806C102.145 239.392 101.471 240.19 100.88 241.2C100.289 242.209 99.9307 243.185 99.8043 244.127C99.6814 245.062 99.8108 245.923 100.192 246.708C100.58 247.497 101.242 248.165 102.178 248.714ZM110.298 255.477L117.954 242.217L126.426 247.108L125.378 248.922L118.831 245.142L116.683 248.862L122.126 252.004L121.078 253.819L115.636 250.677L113.27 254.774L119.817 258.554L118.77 260.368L110.298 255.477ZM121.902 262.177L129.558 248.917L131.51 250.044L132.35 263.666L138.039 253.813L139.991 254.94L132.335 268.2L130.383 267.073L129.548 253.442L123.855 263.304L121.902 262.177ZM136.011 270.322L143.666 257.062L145.591 258.173L137.935 271.433L136.011 270.322ZM140.516 272.923L148.913 268.821L148.292 259.732L150.649 261.093L151.042 267.877L157.095 264.815L159.461 266.181L151.28 270.187L151.916 279.505L149.559 278.144L149.155 271.146L142.883 274.29L140.516 272.923ZM158.912 283.544L166.568 270.284L171.78 273.293C172.621 273.779 173.228 274.358 173.6 275.032C173.972 275.705 174.145 276.398 174.118 277.111C174.095 277.818 173.91 278.472 173.562 279.074C173.14 279.804 172.598 280.326 171.934 280.639C171.277 280.955 170.59 281.033 169.872 280.872L170.114 280.41C170.841 281.108 171.256 281.892 171.359 282.762C171.466 283.626 171.287 284.46 170.823 285.264C170.373 286.044 169.825 286.632 169.178 287.028C168.538 287.428 167.827 287.619 167.043 287.6C166.27 287.579 165.462 287.326 164.621 286.84L158.912 283.544ZM161.922 282.839L165.385 284.838C165.82 285.09 166.258 285.232 166.698 285.264C167.143 285.301 167.553 285.222 167.927 285.029C168.31 284.832 168.626 284.52 168.874 284.09C169.104 283.691 169.222 283.28 169.229 282.858C169.245 282.434 169.14 282.034 168.915 281.658C168.699 281.28 168.371 280.963 167.929 280.708L164.347 278.64L161.922 282.839ZM165.394 276.826L168.626 278.692C168.982 278.897 169.342 279.011 169.706 279.033C170.08 279.052 170.427 278.975 170.749 278.8C171.08 278.623 171.358 278.341 171.581 277.955C171.879 277.439 171.951 276.916 171.799 276.386C171.647 275.856 171.282 275.425 170.705 275.091L167.473 273.225L165.394 276.826ZM170.423 290.19L182.388 279.418L185.16 281.018L181.813 296.766L179.815 295.613L182.832 281.221L183.329 281.509L172.421 291.344L170.423 290.19ZM174.388 288.489L175.43 286.684L182.355 290.682L181.313 292.487L174.388 288.489ZM184.386 298.252L192.042 284.992L193.966 286.103L190.394 292.291L199.519 289.309L201.913 290.691L192.31 293.778L194.69 304.201L192.223 302.776L189.968 293.028L186.311 299.363L184.386 298.252ZM196.907 305.481L204.563 292.221L213.035 297.112L211.988 298.926L205.44 295.146L203.293 298.866L208.735 302.008L207.687 303.822L202.245 300.68L199.879 304.778L206.426 308.558L205.379 310.372L196.907 305.481ZM208.511 312.18L216.167 298.92L221.526 302.015C221.655 302.089 221.811 302.187 221.995 302.309C222.181 302.425 222.352 302.548 222.506 302.678C223.175 303.22 223.644 303.826 223.912 304.497C224.186 305.171 224.275 305.873 224.181 306.604C224.086 307.335 223.833 308.057 223.422 308.769C222.812 309.825 222.016 310.581 221.033 311.036C220.053 311.485 218.968 311.493 217.777 311.06L216.942 310.7L213.185 308.531L210.436 313.292L208.511 312.18ZM216.265 316.657L216.765 309.751L218.995 310.375L218.466 317.928L216.265 316.657ZM214.237 306.708L217.598 308.648C217.721 308.719 217.86 308.791 218.014 308.864C218.175 308.94 218.331 309.002 218.484 309.049C218.93 309.184 219.344 309.198 219.725 309.09C220.11 308.977 220.448 308.787 220.74 308.522C221.033 308.257 221.273 307.962 221.461 307.637C221.648 307.311 221.782 306.959 221.862 306.579C221.946 306.194 221.939 305.809 221.841 305.425C221.747 305.035 221.53 304.681 221.19 304.362C221.076 304.247 220.946 304.139 220.8 304.038C220.66 303.941 220.528 303.857 220.405 303.786L217.044 301.846L214.237 306.708Z" fill="white"/>
<path d="M191.157 61.9674L194.392 63.8352L187.656 75.5026C186.918 76.7816 185.966 77.7319 184.801 78.3537C183.642 78.9788 182.361 79.2508 180.958 79.1696C179.559 79.0826 178.133 78.6196 176.679 77.7805C175.22 76.938 174.103 75.9327 173.328 74.7644C172.557 73.5903 172.152 72.345 172.113 71.0285C172.075 69.7119 172.425 68.4142 173.164 67.1352L179.9 55.4678L183.135 57.3356L176.555 68.7327C176.125 69.4768 175.905 70.2335 175.895 71.0028C175.891 71.7755 176.092 72.5003 176.5 73.1774C176.911 73.8487 177.526 74.4209 178.346 74.8942C179.165 75.3674 179.969 75.6141 180.755 75.6343C181.551 75.652 182.28 75.4641 182.941 75.0707C183.602 74.6773 184.148 74.1086 184.577 73.3645L191.157 61.9674ZM195.146 77.6179L190.615 85.466L187.459 83.6435L195.192 70.2495L198.209 71.9914L196.895 74.2674L197.052 74.358C197.793 73.7859 198.628 73.4737 199.557 73.4212C200.493 73.3721 201.46 73.6362 202.46 74.2135C203.384 74.7471 204.076 75.4096 204.533 76.201C204.997 76.9957 205.201 77.8771 205.146 78.8452C205.097 79.8166 204.76 80.8355 204.137 81.9018L199.213 90.43L196.057 88.6075L200.698 80.5676C201.215 79.6724 201.387 78.8376 201.214 78.0633C201.047 77.2924 200.556 76.672 199.742 76.2021C199.19 75.8833 198.628 75.7217 198.057 75.7175C197.495 75.7109 196.961 75.8638 196.455 76.1763C195.955 76.4921 195.519 76.9726 195.146 77.6179ZM216.843 82.7502L215.434 85.1918L207.734 80.7463L209.144 78.3047L216.843 82.7502ZM212.897 76.1933L216.054 78.0158L208.794 90.5901C208.549 91.0144 208.425 91.3769 208.422 91.6775C208.428 91.9756 208.515 92.2274 208.684 92.433C208.852 92.6386 209.067 92.8169 209.328 92.9679C209.526 93.082 209.714 93.1715 209.894 93.2364C210.079 93.3047 210.222 93.3524 210.323 93.3795L209.43 96.1544C209.228 96.1152 208.95 96.0398 208.596 95.9283C208.247 95.8202 207.846 95.6427 207.392 95.3959C206.587 94.9627 205.944 94.4324 205.462 93.8049C204.982 93.1717 204.718 92.4686 204.668 91.6957C204.624 90.9262 204.846 90.1245 205.335 89.2908L212.897 76.1933ZM211.75 97.6684L219.483 84.2744L222.64 86.0969L214.907 99.4909L211.75 97.6684ZM222.168 83.2897C221.668 83.0011 221.334 82.587 221.164 82.0476C220.999 81.5023 221.052 80.9942 221.324 80.5233C221.599 80.0466 222.012 79.7467 222.564 79.6234C223.119 79.4943 223.647 79.5741 224.147 79.8627C224.652 80.1547 224.985 80.5717 225.145 81.1136C225.314 81.6531 225.261 82.1611 224.986 82.6378C224.714 83.1087 224.301 83.4087 223.746 83.5378C223.2 83.6644 222.674 83.5817 222.168 83.2897ZM232.574 91.8325L231.165 94.2741L223.465 89.8286L224.875 87.387L232.574 91.8325ZM228.628 85.2755L231.785 87.098L224.525 99.6723C224.28 100.097 224.156 100.459 224.153 100.76C224.159 101.058 224.246 101.31 224.415 101.515C224.583 101.721 224.798 101.899 225.059 102.05C225.257 102.164 225.445 102.254 225.625 102.319C225.81 102.387 225.953 102.435 226.054 102.462L225.161 105.237C224.959 105.197 224.681 105.122 224.327 105.011C223.978 104.902 223.577 104.725 223.122 104.478C222.318 104.045 221.675 103.515 221.192 102.887C220.713 102.254 220.449 101.551 220.399 100.778C220.355 100.008 220.577 99.2068 221.066 98.3731L228.628 85.2755ZM241.237 90.8806L230.926 108.739L227.769 106.917L238.08 89.0582L241.237 90.8806ZM239.95 114.298C238.608 113.523 237.609 112.575 236.954 111.453C236.309 110.328 236.022 109.1 236.093 107.769C236.167 106.433 236.609 105.064 237.418 103.663C238.213 102.285 239.173 101.227 240.297 100.488C241.43 99.7472 242.638 99.3596 243.921 99.3253C245.208 99.2853 246.491 99.6344 247.77 100.373C248.595 100.849 249.297 101.433 249.875 102.123C250.462 102.811 250.878 103.594 251.123 104.472C251.374 105.353 251.416 106.315 251.248 107.357C251.083 108.394 250.662 109.5 249.984 110.674L249.425 111.642L238.447 105.303L239.675 103.176L247.628 107.767C247.971 107.159 248.151 106.546 248.167 105.927C248.186 105.303 248.045 104.722 247.744 104.183C247.448 103.648 246.998 103.206 246.393 102.857C245.748 102.485 245.091 102.314 244.421 102.346C243.755 102.372 243.139 102.559 242.574 102.907C242.018 103.253 241.564 103.724 241.213 104.319L240.14 106.176C239.69 106.955 239.447 107.706 239.41 108.429C239.376 109.145 239.529 109.8 239.869 110.391C240.213 110.978 240.728 111.469 241.414 111.865C241.873 112.13 242.326 112.306 242.772 112.393C243.221 112.474 243.656 112.465 244.077 112.367C244.498 112.269 244.887 112.072 245.245 111.774L248.001 113.807C247.365 114.479 246.618 114.954 245.759 115.234C244.909 115.51 243.988 115.575 242.995 115.429C242.006 115.276 240.991 114.899 239.95 114.298ZM253.562 122.122C252.51 121.515 251.724 120.701 251.205 119.68C250.686 118.66 250.482 117.496 250.594 116.188C250.705 114.88 251.186 113.491 252.035 112.021C252.894 110.532 253.863 109.418 254.942 108.676C256.03 107.933 257.144 107.541 258.283 107.501C259.426 107.455 260.512 107.73 261.541 108.324C262.325 108.777 262.894 109.283 263.245 109.842C263.6 110.396 263.818 110.944 263.9 111.488C263.985 112.025 264.014 112.504 263.989 112.923L264.12 112.999L267.977 106.319L271.142 108.147L260.831 126.005L257.727 124.213L258.945 122.103L258.753 121.992C258.403 122.223 257.968 122.433 257.448 122.622C256.932 122.804 256.347 122.877 255.694 122.841C255.04 122.805 254.33 122.565 253.562 122.122ZM255.938 120.041C256.607 120.427 257.281 120.576 257.96 120.487C258.642 120.393 259.293 120.091 259.913 119.58C260.533 119.07 261.093 118.382 261.593 117.516C262.093 116.65 262.406 115.826 262.531 115.046C262.662 114.269 262.594 113.567 262.328 112.941C262.068 112.318 261.598 111.81 260.917 111.417C260.214 111.011 259.521 110.855 258.839 110.949C258.156 111.044 257.51 111.345 256.899 111.852C256.288 112.36 255.743 113.03 255.263 113.861C254.779 114.698 254.467 115.514 254.326 116.308C254.195 117.1 254.255 117.821 254.508 118.471C254.77 119.118 255.246 119.642 255.938 120.041ZM266.029 129.262C265.5 128.956 265.154 128.509 264.991 127.918C264.828 127.328 264.903 126.767 265.218 126.236C265.514 125.709 265.959 125.369 266.551 125.215C267.144 125.061 267.705 125.137 268.234 125.442C268.745 125.738 269.083 126.181 269.246 126.771C269.415 127.364 269.351 127.924 269.055 128.451C268.844 128.802 268.565 129.071 268.217 129.258C267.875 129.448 267.508 129.546 267.117 129.553C266.734 129.557 266.372 129.46 266.029 129.262Z" fill="white"/>
</g>
<path d="M154.945 25.5094C162.53 12.3715 179.329 7.87015 192.467 15.4553L628.33 267.101C641.468 274.686 645.969 291.485 638.384 304.623L498.384 547.11C490.799 560.248 474 564.75 460.862 557.165L24.9987 305.519C11.8608 297.934 7.35947 281.134 14.9446 267.997L154.945 25.5094Z" stroke="url(#paint1_linear_1_13632)" stroke-opacity="0.3" stroke-width="1.77215"/>
</g>
<defs>
<filter id="filter0_b_1_13632" x="-21.2658" y="-20.7551" width="695.86" height="614.13" filterUnits="userSpaceOnUse" color-interpolation-filters="sRGB">
<feFlood flood-opacity="0" result="BackgroundImageFix"/>
<feGaussianBlur in="BackgroundImageFix" stdDeviation="10.6329"/>
<feComposite in2="SourceAlpha" operator="in" result="effect1_backgroundBlur_1_13632"/>
<feBlend mode="normal" in="SourceGraphic" in2="effect1_backgroundBlur_1_13632" result="shape"/>
</filter>
<filter id="filter1_f_1_13632" x="-210.632" y="-265.058" width="841" height="841" filterUnits="userSpaceOnUse" color-interpolation-filters="sRGB">
<feFlood flood-opacity="0" result="BackgroundImageFix"/>
<feBlend mode="normal" in="SourceGraphic" in2="BackgroundImageFix" result="shape"/>
<feGaussianBlur stdDeviation="113.418" result="effect1_foregroundBlur_1_13632"/>
</filter>
<linearGradient id="paint0_linear_1_13632" x1="192.584" y1="14.4995" x2="489.464" y2="654.146" gradientUnits="userSpaceOnUse">
<stop stop-color="white" stop-opacity="0.3"/>
<stop offset="1" stop-color="white" stop-opacity="0"/>
</linearGradient>
<linearGradient id="paint1_linear_1_13632" x1="161.245" y1="12.8239" x2="463.691" y2="583.391" gradientUnits="userSpaceOnUse">
<stop stop-color="white"/>
<stop offset="1" stop-color="white" stop-opacity="0.2"/>
</linearGradient>
<clipPath id="clip0_1_13632">
<path d="M154.177 25.0664C162.007 11.5047 179.348 6.8581 192.91 14.688L628.773 266.334C642.335 274.163 646.981 291.505 639.151 305.066L499.151 547.554C491.322 561.115 473.98 565.762 460.419 557.932L24.5557 306.286C10.994 298.457 6.34741 281.115 14.1773 267.554L154.177 25.0664Z" fill="white"/>
</clipPath>
</defs>
</svg>
