<svg width="572" height="449" viewBox="0 0 572 449" fill="none" xmlns="http://www.w3.org/2000/svg">
<g filter="url(#filter0_b_1_13635)">
<g clip-path="url(#clip0_1_13635)">
<path d="M547.043 154.823C560.605 162.653 565.251 179.994 557.421 193.556L305.776 629.419C297.946 642.98 280.605 647.627 267.043 639.797L24.5559 499.797C10.9941 491.967 6.34756 474.626 14.1774 461.064L265.823 25.2012C273.653 11.6395 290.994 6.99292 304.556 14.8228L547.043 154.823Z" fill="black" fill-opacity="0.1"/>
<path d="M547.043 154.823C560.605 162.653 565.251 179.994 557.421 193.556L305.776 629.419C297.946 642.98 280.605 647.627 267.043 639.797L24.5559 499.797C10.9941 491.967 6.34756 474.626 14.1774 461.064L265.823 25.2012C273.653 11.6395 290.994 6.99292 304.556 14.8228L547.043 154.823Z" fill="url(#paint0_linear_1_13635)"/>
<g filter="url(#filter1_f_1_13635)">
<path opacity="0.3" d="M487.553 87.7355C555.362 126.885 578.595 213.591 539.445 281.4L416.667 210.514L487.553 87.7355Z" fill="#EE46BC"/>
<path opacity="0.3" d="M539.446 281.4C500.296 349.208 413.59 372.441 345.781 333.292L416.667 210.514L539.446 281.4Z" fill="#EF6820"/>
<path opacity="0.3" d="M487.553 87.7355L416.667 210.514L293.889 139.628C333.038 71.8192 419.745 48.5862 487.553 87.7355Z" fill="#2E90FA"/>
<path opacity="0.3" d="M416.667 210.514L345.781 333.292C277.973 294.143 254.74 207.436 293.889 139.628L416.667 210.514Z" fill="#17B26A"/>
</g>
<path d="M121.579 430.989C124.969 432.946 126.131 437.281 124.174 440.672L91.0933 497.968C89.1359 501.359 84.8006 502.52 81.4101 500.563L44.5766 479.297C41.1862 477.34 40.0246 473.004 41.982 469.614L75.0622 412.317C77.0197 408.927 81.355 407.765 84.7454 409.723L121.579 430.989Z" fill="white" fill-opacity="0.1"/>
<path opacity="0.5" fill-rule="evenodd" clip-rule="evenodd" d="M64.5124 456.913C60.0881 464.576 62.6397 474.332 70.2117 478.704C77.7836 483.076 87.5085 480.407 91.9329 472.744C93.9157 469.31 94.4974 465.455 93.8539 461.853C97.2951 460.609 100.343 458.178 102.325 454.744C106.75 447.08 104.198 437.324 96.6261 432.953C89.0542 428.581 79.3293 431.249 74.9049 438.912C72.9221 442.347 72.3404 446.202 72.9838 449.804C69.5427 451.047 66.4952 453.479 64.5124 456.913Z" fill="white"/>
<path opacity="0.5" fill-rule="evenodd" clip-rule="evenodd" d="M64.5124 456.913C60.0881 464.576 62.6397 474.332 70.2117 478.704C77.7836 483.076 87.5085 480.407 91.9329 472.744C93.9157 469.31 94.4974 465.455 93.854 461.853C89.6168 463.384 84.7827 463.116 80.6042 460.703C76.4258 458.291 73.7761 454.239 72.9839 449.804C69.5427 451.047 66.4952 453.479 64.5124 456.913Z" fill="white"/>
<path fill-rule="evenodd" clip-rule="evenodd" d="M72.9838 449.804C77.221 448.272 82.0551 448.541 86.2335 450.953C90.412 453.366 93.0616 457.418 93.8539 461.853C89.6167 463.384 84.7827 463.116 80.6042 460.703C76.4258 458.291 73.7761 454.239 72.9838 449.804Z" fill="white"/>
<path d="M295.39 48.6727L310.246 57.2499L310.142 52.753L313.002 54.4047L313.07 58.8803L311.56 61.4955L293.88 51.2879L295.39 48.6727ZM289.358 59.1497L291.634 60.4805L294.09 72.1625C294.279 73.1012 294.56 73.8252 294.931 74.3344C295.298 74.8519 295.731 75.2547 296.231 75.543C296.861 75.9069 297.506 76.0938 298.166 76.1038C298.834 76.1185 299.457 75.9653 300.036 75.6444C300.614 75.3234 301.087 74.8437 301.456 74.2052C301.834 73.5504 302.016 72.8754 302.003 72.1801C301.993 71.4978 301.817 70.8669 301.475 70.2874C301.133 69.7079 300.665 69.2521 300.071 68.9201L301.588 66.2926C302.734 66.9542 303.588 67.791 304.149 68.8028C304.714 69.8276 304.976 70.9337 304.935 72.1211C304.901 73.3132 304.547 74.4945 303.871 75.665C303.228 76.7781 302.398 77.6302 301.38 78.2213C300.37 78.817 299.281 79.1158 298.112 79.1176C296.939 79.1276 295.791 78.8089 294.67 78.1615C293.859 77.6936 293.233 77.1903 292.791 76.6514C292.35 76.1125 292.01 75.4908 291.773 74.7864C291.536 74.0819 291.319 73.2474 291.123 72.2829L289.25 63.2781L290.149 63.4211L284.897 72.5189L282.453 71.1083L289.358 59.1497ZM275.426 82.4857C275.932 81.6099 276.571 80.8818 277.342 80.3014C278.122 79.7258 278.982 79.3328 279.922 79.1224C280.857 78.9202 281.815 78.9333 282.797 79.1616L282.052 82.0387C281.154 81.8365 280.33 81.912 279.581 82.2651C278.839 82.6228 278.265 83.1642 277.857 83.8893C277.492 84.5406 277.315 85.1969 277.326 85.8582C277.337 86.5194 277.512 87.1333 277.851 87.6999C278.198 88.2712 278.698 88.7458 279.353 89.1239C280.336 89.691 281.323 89.8519 282.316 89.6066C283.304 89.3695 284.082 88.7598 284.649 87.7776C284.81 87.4993 284.934 87.1892 285.022 86.8473C285.106 86.5135 285.155 86.182 285.171 85.8526L287.891 85.819L289.803 95.239L288.911 95.0838L293.873 86.4893L296.316 87.8999L290.177 98.5325L287.734 97.1219L285.74 89.0627L286.589 89.5201C285.947 90.6333 285.139 91.455 284.168 91.9853C283.204 92.5203 282.169 92.763 281.062 92.7135C279.959 92.677 278.884 92.3562 277.836 91.7514C276.707 91.0992 275.858 90.2543 275.289 89.2166C274.716 88.1871 274.437 87.0821 274.453 85.9016C274.464 84.7294 274.788 83.5907 275.426 82.4857ZM264.051 102.954L267.132 104.734L271.74 96.753L274.171 98.1565L283.021 110.927L281.327 113.862L272.477 101.091L269.563 106.137L274.352 108.902L272.849 111.505L268.061 108.74L267.047 110.496L264.616 109.092L265.63 107.336L262.548 105.557L264.051 102.954ZM250.962 125.625L265.818 134.202L265.713 129.705L268.574 131.357L268.642 135.833L267.132 138.448L249.452 128.24L250.962 125.625ZM244.929 136.102L247.206 137.433L249.661 149.115C249.851 150.053 250.131 150.777 250.503 151.287C250.87 151.804 251.303 152.207 251.802 152.495C252.433 152.859 253.078 153.046 253.738 153.056C254.406 153.071 255.029 152.918 255.607 152.597C256.185 152.276 256.659 151.796 257.027 151.157C257.406 150.503 257.588 149.828 257.575 149.132C257.565 148.45 257.389 147.819 257.047 147.24C256.705 146.66 256.237 146.204 255.642 145.872L257.159 143.245C258.305 143.906 259.159 144.743 259.721 145.755C260.286 146.78 260.548 147.886 260.506 149.073C260.473 150.265 260.118 151.447 259.442 152.617C258.8 153.73 257.969 154.582 256.952 155.174C255.942 155.769 254.853 156.068 253.684 156.07C252.51 156.08 251.363 155.761 250.241 155.114C249.431 154.646 248.805 154.143 248.363 153.604C247.921 153.065 247.582 152.443 247.344 151.739C247.107 151.034 246.891 150.2 246.694 149.235L244.821 140.23L245.721 140.373L240.468 149.471L238.025 148.061L244.929 136.102ZM230.998 159.438C231.504 158.562 232.142 157.834 232.914 157.254C233.694 156.678 234.554 156.285 235.493 156.075C236.429 155.872 237.387 155.886 238.368 156.114L237.624 158.991C236.726 158.789 235.902 158.864 235.152 159.217C234.411 159.575 233.837 160.116 233.429 160.842C233.064 161.493 232.887 162.149 232.898 162.81C232.909 163.472 233.084 164.086 233.422 164.652C233.769 165.223 234.27 165.698 234.925 166.076C235.907 166.643 236.895 166.804 237.888 166.559C238.876 166.322 239.653 165.712 240.22 164.73C240.381 164.452 240.506 164.141 240.594 163.8C240.677 163.466 240.727 163.134 240.742 162.805L243.463 162.771L245.375 172.191L244.482 172.036L249.444 163.442L251.887 164.852L245.749 175.485L243.305 174.074L241.312 166.015L242.161 166.472C241.518 167.586 240.711 168.407 239.739 168.938C238.776 169.473 237.74 169.715 236.634 169.666C235.531 169.629 234.456 169.308 233.408 168.704C232.278 168.051 231.429 167.207 230.861 166.169C230.287 165.139 230.008 164.034 230.024 162.854C230.035 161.682 230.36 160.543 230.998 159.438ZM219.622 179.907L222.704 181.686L227.312 173.705L229.743 175.109L238.593 187.88L236.898 190.814L228.048 178.043L225.135 183.089L229.923 185.854L228.421 188.457L223.632 185.692L222.619 187.448L220.188 186.044L221.201 184.289L218.12 182.509L219.622 179.907ZM206.533 202.577L221.39 211.154L221.285 206.658L224.146 208.309L224.214 212.785L222.704 215.4L205.024 205.192L206.533 202.577ZM200.501 213.054L202.777 214.385L205.233 226.067C205.422 227.006 205.703 227.73 206.074 228.239C206.441 228.756 206.875 229.159 207.374 229.448C208.004 229.811 208.649 229.998 209.309 230.008C209.977 230.023 210.601 229.87 211.179 229.549C211.757 229.228 212.23 228.748 212.599 228.11C212.977 227.455 213.159 226.78 213.146 226.085C213.136 225.402 212.96 224.771 212.618 224.192C212.276 223.612 211.808 223.157 211.214 222.825L212.731 220.197C213.877 220.859 214.731 221.695 215.292 222.707C215.858 223.732 216.119 224.838 216.078 226.026C216.044 227.218 215.69 228.399 215.014 229.569C214.371 230.683 213.541 231.535 212.523 232.126C211.513 232.721 210.424 233.02 209.255 233.022C208.082 233.032 206.934 232.713 205.813 232.066C205.003 231.598 204.377 231.095 203.935 230.556C203.493 230.017 203.153 229.395 202.916 228.691C202.679 227.986 202.462 227.152 202.266 226.187L200.393 217.183L201.293 217.326L196.04 226.423L193.597 225.013L200.501 213.054ZM186.569 236.39C187.075 235.514 187.714 234.786 188.485 234.206C189.265 233.63 190.125 233.237 191.065 233.027C192 232.825 192.959 232.838 193.94 233.066L193.196 235.943C192.297 235.741 191.474 235.817 190.724 236.17C189.983 236.527 189.408 237.069 189 237.794C188.635 238.445 188.458 239.101 188.469 239.763C188.481 240.424 188.655 241.038 188.994 241.604C189.341 242.176 189.842 242.65 190.497 243.028C191.479 243.595 192.466 243.756 193.459 243.511C194.447 243.274 195.225 242.664 195.792 241.682C195.953 241.404 196.077 241.094 196.165 240.752C196.249 240.418 196.299 240.086 196.314 239.757L199.035 239.724L200.946 249.143L200.054 248.988L205.016 240.394L207.459 241.804L201.32 252.437L198.877 251.026L196.884 242.967L197.733 243.425C197.09 244.538 196.283 245.36 195.311 245.89C194.347 246.425 193.312 246.668 192.206 246.618C191.103 246.581 190.027 246.261 188.98 245.656C187.85 245.004 187.001 244.159 186.432 243.121C185.859 242.092 185.58 240.987 185.596 239.806C185.607 238.634 185.931 237.495 186.569 236.39ZM175.194 256.859L178.276 258.638L182.883 250.657L185.314 252.061L194.164 264.832L192.47 267.766L183.62 254.995L180.707 260.042L185.495 262.806L183.992 265.409L179.204 262.645L178.19 264.4L175.759 262.997L176.773 261.241L173.691 259.462L175.194 256.859ZM162.105 279.529L176.961 288.107L176.856 283.61L179.717 285.261L179.785 289.737L178.275 292.352L160.595 282.145L162.105 279.529ZM156.072 290.006L158.349 291.337L160.805 303.019C160.994 303.958 161.274 304.682 161.646 305.191C162.013 305.709 162.446 306.111 162.946 306.4C163.576 306.764 164.221 306.951 164.881 306.961C165.549 306.975 166.172 306.822 166.75 306.501C167.329 306.18 167.802 305.7 168.171 305.062C168.549 304.407 168.731 303.732 168.718 303.037C168.708 302.355 168.532 301.724 168.19 301.144C167.848 300.565 167.38 300.109 166.786 299.777L168.303 297.149C169.449 297.811 170.302 298.648 170.864 299.66C171.429 300.684 171.691 301.79 171.649 302.978C171.616 304.17 171.261 305.351 170.586 306.522C169.943 307.635 169.113 308.487 168.095 309.078C167.085 309.674 165.996 309.973 164.827 309.974C163.653 309.984 162.506 309.666 161.385 309.018C160.574 308.55 159.948 308.047 159.506 307.508C159.064 306.969 158.725 306.348 158.488 305.643C158.25 304.939 158.034 304.104 157.838 303.14L155.964 294.135L156.864 294.278L151.611 303.376L149.168 301.965L156.072 290.006ZM142.141 313.342C142.647 312.467 143.285 311.739 144.057 311.158C144.837 310.583 145.697 310.19 146.637 309.979C147.572 309.777 148.53 309.79 149.512 310.018L148.767 312.895C147.869 312.693 147.045 312.769 146.296 313.122C145.554 313.48 144.98 314.021 144.572 314.746C144.207 315.397 144.03 316.054 144.041 316.715C144.052 317.376 144.227 317.99 144.566 318.557C144.912 319.128 145.413 319.603 146.068 319.981C147.05 320.548 148.038 320.709 149.031 320.463C150.019 320.226 150.797 319.617 151.364 318.634C151.524 318.356 151.649 318.046 151.737 317.704C151.821 317.37 151.87 317.039 151.886 316.709L154.606 316.676L156.518 326.096L155.625 325.941L160.587 317.346L163.031 318.757L156.892 329.389L154.449 327.979L152.455 319.919L153.304 320.377C152.662 321.49 151.854 322.312 150.882 322.842C149.919 323.377 148.884 323.62 147.777 323.57C146.674 323.534 145.599 323.213 144.551 322.608C143.422 321.956 142.572 321.111 142.004 320.073C141.43 319.044 141.152 317.939 141.167 316.758C141.179 315.586 141.503 314.447 142.141 313.342ZM130.766 333.811L133.847 335.59L138.455 327.61L140.886 329.013L149.736 341.784L148.042 344.719L139.192 331.948L136.278 336.994L141.067 339.758L139.564 342.361L134.775 339.597L133.762 341.352L131.331 339.949L132.344 338.193L129.263 336.414L130.766 333.811Z" fill="white"/>
<path d="M340.313 69.9271L353.573 77.5827L351.176 81.7357C351.105 81.8585 350.971 82.0839 350.773 82.4118C350.572 82.7459 350.361 83.054 350.141 83.3362C349.413 84.2992 348.539 84.9565 347.517 85.3081C346.492 85.6657 345.402 85.7528 344.248 85.5691C343.099 85.3891 341.964 84.9747 340.84 84.3261C339.711 83.674 338.778 82.8939 338.041 81.9859C337.311 81.0814 336.845 80.0959 336.642 79.0293C336.442 77.9725 336.577 76.8881 337.047 75.7762C337.181 75.4444 337.343 75.1079 337.531 74.7668C337.717 74.4317 337.845 74.2028 337.916 74.08L340.313 69.9271ZM341.008 72.9556L339.748 75.138C339.628 75.3467 339.49 75.5989 339.336 75.8945C339.182 76.1901 339.059 76.4591 338.968 76.7013C338.707 77.451 338.683 78.1658 338.897 78.8455C339.113 79.5349 339.498 80.171 340.054 80.7538C340.61 81.3365 341.265 81.8459 342.02 82.2819C342.8 82.732 343.58 83.0471 344.36 83.2273C345.146 83.4111 345.885 83.4205 346.578 83.2557C347.273 83.1005 347.874 82.7269 348.379 82.1348C348.55 81.9386 348.723 81.6949 348.9 81.4038C349.078 81.1223 349.226 80.8803 349.343 80.6777L350.603 78.4954L341.008 72.9556ZM332.44 83.5634L345.701 91.2191L340.809 99.6908L338.995 98.6434L342.775 92.0963L339.055 89.9484L335.913 95.3906L334.099 94.3432L337.241 88.9011L333.143 86.5352L329.363 93.0824L327.549 92.0351L332.44 83.5634ZM325.741 95.1673L339.001 102.823L337.996 104.563L325.248 103.612L332.462 114.149L331.446 115.908L318.195 108.258L319.248 106.434L328.318 111.671L321.711 102.147L322.216 101.272L333.773 102.223L324.694 96.9814L325.741 95.1673ZM316.059 111.937L329.319 119.593L328.208 121.518L314.948 113.862L316.059 111.937ZM308.538 124.964L324.02 128.771L322.856 130.788L311.217 127.788L319.625 136.363L318.464 138.394L306.825 135.394L315.242 143.974L314.073 146L303.04 134.486L304.146 132.57L315.706 135.451L307.432 126.88L308.538 124.964ZM299.283 140.994L312.543 148.65L311.432 150.574L298.172 142.919L299.283 140.994ZM295.937 146.789L309.197 154.445L308.086 156.369L296.64 149.761L293.174 155.765L291.36 154.717L295.937 146.789ZM289.925 157.202L303.185 164.857L302.074 166.782L295.886 163.209L298.869 172.334L297.486 174.729L294.399 165.125L283.976 167.506L285.401 165.038L295.15 162.784L288.814 159.126L289.925 157.202ZM282.59 169.907L295.85 177.563L294.739 179.487L281.479 171.831L282.59 169.907ZM279.351 175.518L292.611 183.173L291.484 185.125L277.861 185.966L287.714 191.654L286.587 193.606L273.327 185.951L274.454 183.998L288.086 183.164L278.224 177.47L279.351 175.518ZM268.26 194.089C268.81 193.137 269.468 192.372 270.237 191.792C271.008 191.223 271.841 190.864 272.736 190.718C273.633 190.581 274.545 190.682 275.471 191.02L274.616 193.203C273.688 192.938 272.812 192.997 271.985 193.379C271.165 193.765 270.507 194.387 270.01 195.247C269.702 195.781 269.501 196.32 269.408 196.864C269.322 197.411 269.357 197.91 269.514 198.361C269.674 198.822 269.974 199.179 270.416 199.435C270.656 199.573 270.892 199.652 271.126 199.673C271.356 199.699 271.582 199.678 271.802 199.608C272.024 199.549 272.245 199.443 272.464 199.291C272.685 199.148 272.904 198.976 273.119 198.773L276.085 195.954C276.374 195.68 276.695 195.415 277.047 195.159C277.405 194.908 277.793 194.71 278.211 194.567C278.632 194.434 279.081 194.386 279.559 194.424C280.042 194.466 280.554 194.643 281.094 194.955C281.911 195.426 282.481 196.033 282.804 196.777C283.131 197.53 283.231 198.349 283.105 199.234C282.985 200.122 282.668 201.012 282.154 201.902C281.624 202.791 281.002 203.5 280.287 204.029C279.569 204.564 278.787 204.898 277.941 205.031C277.097 205.174 276.215 205.099 275.296 204.806L276.137 202.541C276.687 202.736 277.227 202.786 277.757 202.691C278.293 202.599 278.782 202.39 279.224 202.064C279.672 201.742 280.046 201.327 280.347 200.821C280.642 200.337 280.829 199.844 280.907 199.34C280.981 198.843 280.945 198.388 280.798 197.976C280.648 197.57 280.386 197.259 280.011 197.043C279.643 196.83 279.283 196.766 278.932 196.849C278.581 196.933 278.247 197.092 277.931 197.328C277.618 197.572 277.328 197.827 277.062 198.09L274.957 200.141C274.694 200.398 274.377 200.678 274.006 200.979C273.638 201.291 273.221 201.553 272.754 201.766C272.283 201.986 271.764 202.091 271.196 202.082C270.634 202.077 270.031 201.889 269.386 201.517C268.717 201.13 268.206 200.655 267.852 200.091C267.505 199.53 267.296 198.914 267.225 198.243C267.157 197.581 267.214 196.894 267.396 196.181C267.579 195.468 267.867 194.77 268.26 194.089ZM260.466 207.589C261.231 206.263 262.172 205.3 263.288 204.7C264.41 204.104 265.633 203.857 266.957 203.958C268.278 204.066 269.623 204.515 270.992 205.306C272.361 206.096 273.423 207.036 274.177 208.127C274.927 209.223 275.322 210.404 275.36 211.67C275.404 212.94 275.044 214.238 274.278 215.564C273.516 216.884 272.574 217.842 271.452 218.438C270.333 219.045 269.113 219.294 267.792 219.186C266.471 219.078 265.126 218.629 263.757 217.838C262.388 217.048 261.326 216.108 260.572 215.018C259.818 213.928 259.421 212.745 259.38 211.469C259.342 210.202 259.704 208.909 260.466 207.589ZM262.298 208.647C261.744 209.58 261.499 210.478 261.565 211.343C261.633 212.217 261.957 213.03 262.538 213.783C263.124 214.539 263.924 215.209 264.937 215.794C265.95 216.379 266.924 216.733 267.86 216.856C268.802 216.982 269.666 216.854 270.451 216.473C271.232 216.097 271.897 215.442 272.446 214.506C273 213.574 273.247 212.672 273.184 211.802C273.119 210.937 272.793 210.127 272.206 209.371C271.62 208.615 270.822 207.941 269.812 207.35C268.803 206.759 267.827 206.4 266.885 206.274C265.949 206.151 265.089 206.281 264.304 206.662C263.515 207.05 262.847 207.712 262.298 208.647ZM255.535 216.768L268.795 224.424L267.668 226.376L254.045 227.216L263.898 232.905L262.771 234.857L249.511 227.201L250.638 225.249L264.27 224.414L254.408 218.72L255.535 216.768Z" fill="white"/>
<path d="M199.274 313.576C199.795 312.673 200.452 311.989 201.246 311.522C202.045 311.059 202.907 310.828 203.831 310.829C204.752 310.837 205.663 311.101 206.566 311.622L211.133 314.259C212.035 314.78 212.72 315.437 213.187 316.231C213.65 317.03 213.878 317.89 213.87 318.811C213.869 319.735 213.608 320.648 213.087 321.551C212.566 322.453 211.905 323.136 211.106 323.599C210.313 324.066 209.456 324.296 208.535 324.288C207.611 324.287 206.698 324.025 205.795 323.504L201.228 320.867C200.326 320.346 199.643 319.686 199.179 318.887C198.712 318.093 198.48 317.234 198.481 316.31C198.489 315.39 198.753 314.478 199.274 313.576ZM201.116 314.639C200.832 315.13 200.692 315.643 200.695 316.176C200.7 316.72 200.834 317.226 201.094 317.696C201.361 318.17 201.743 318.55 202.241 318.837L207.066 321.623C207.557 321.906 208.071 322.043 208.608 322.034C209.152 322.029 209.657 321.891 210.124 321.62C210.594 321.36 210.971 320.984 211.254 320.493C211.538 320.001 211.677 319.484 211.671 318.941C211.668 318.407 211.534 317.904 211.267 317.43C211.006 316.96 210.63 316.584 210.139 316.3L205.314 313.514C204.816 313.227 204.296 313.087 203.753 313.092C203.215 313.101 202.712 313.236 202.242 313.497C201.775 313.767 201.399 314.148 201.116 314.639ZM191.958 326.248C192.454 325.389 193.103 324.732 193.905 324.279C194.713 323.829 195.591 323.607 196.537 323.613C197.479 323.625 198.405 323.893 199.313 324.418L203.54 326.858C204.504 327.414 205.236 328.103 205.736 328.924C206.232 329.751 206.478 330.637 206.472 331.583C206.462 332.535 206.188 333.478 205.649 334.411C205.245 335.111 204.734 335.692 204.116 336.153C203.497 336.615 202.798 336.919 202.017 337.066L201.514 334.897C201.985 334.833 202.425 334.665 202.835 334.395C203.248 334.134 203.578 333.788 203.826 333.359C204.145 332.806 204.293 332.245 204.27 331.675C204.253 331.109 204.102 330.584 203.817 330.1C203.528 329.622 203.141 329.243 202.656 328.963L200.225 327.559L200.867 327.426C201.144 328.094 201.264 328.794 201.227 329.525C201.189 330.256 200.984 330.944 200.612 331.589C200.137 332.411 199.52 333.033 198.761 333.455C198.005 333.886 197.192 334.096 196.323 334.085C195.449 334.08 194.602 333.84 193.779 333.365C192.95 332.887 192.319 332.244 191.884 331.437C191.453 330.639 191.238 329.778 191.239 328.854C191.243 327.94 191.483 327.071 191.958 326.248ZM193.809 327.317C193.532 327.796 193.397 328.299 193.404 328.827C193.41 329.354 193.542 329.848 193.801 330.308C194.059 330.768 194.427 331.137 194.906 331.413C195.385 331.69 195.888 331.825 196.416 331.818C196.94 331.818 197.432 331.689 197.892 331.43C198.352 331.172 198.72 330.804 198.997 330.325C199.273 329.846 199.41 329.34 199.407 328.806C199.401 328.278 199.268 327.785 199.01 327.324C198.752 326.864 198.383 326.496 197.905 326.22C197.432 325.947 196.932 325.813 196.404 325.82C195.877 325.826 195.38 325.957 194.913 326.212C194.453 326.47 194.085 326.838 193.809 327.317ZM199.055 345.217L197.933 347.16L186.714 335.968L187.836 334.025L199.055 345.217ZM182.976 342.465L184.683 343.463L186.525 352.224C186.667 352.928 186.877 353.471 187.156 353.853C187.431 354.241 187.756 354.543 188.131 354.76C188.603 355.033 189.087 355.173 189.582 355.18C190.083 355.191 190.551 355.076 190.984 354.836C191.418 354.595 191.773 354.235 192.05 353.756C192.333 353.265 192.47 352.759 192.46 352.237C192.452 351.726 192.32 351.253 192.064 350.818C191.807 350.383 191.456 350.041 191.011 349.792L192.148 347.822C193.008 348.318 193.648 348.946 194.07 349.704C194.493 350.473 194.69 351.303 194.659 352.193C194.633 353.087 194.368 353.973 193.861 354.851C193.379 355.686 192.756 356.325 191.993 356.768C191.235 357.215 190.418 357.439 189.542 357.441C188.662 357.448 187.801 357.209 186.96 356.723C186.352 356.373 185.883 355.995 185.551 355.591C185.22 355.187 184.965 354.72 184.787 354.192C184.609 353.664 184.447 353.038 184.3 352.315L182.895 345.561L183.57 345.668L179.63 352.492L177.798 351.434L182.976 342.465ZM173.255 358.643C173.754 357.778 174.369 357.109 175.099 356.639C175.832 356.178 176.618 355.936 177.458 355.913C178.294 355.897 179.121 356.124 179.937 356.596C180.698 357.035 181.292 357.615 181.719 358.337C182.146 359.058 182.337 359.876 182.291 360.791L181.649 360.371C182.325 360.009 183.013 359.824 183.712 359.819C184.414 359.823 185.09 360.012 185.74 360.388C186.496 360.824 187.048 361.377 187.399 362.045C187.749 362.714 187.898 363.443 187.844 364.23C187.787 365.024 187.528 365.82 187.067 366.618C186.606 367.416 186.048 368.035 185.393 368.475C184.738 368.915 184.033 369.151 183.279 369.182C182.524 369.213 181.769 369.01 181.014 368.574C180.363 368.199 179.86 367.716 179.505 367.126C179.15 366.536 178.966 365.841 178.954 365.04L179.615 365.384C178.867 365.886 178.069 366.133 177.221 366.127C176.38 366.124 175.579 365.903 174.817 365.463C174.001 364.992 173.393 364.387 172.992 363.648C172.592 362.91 172.41 362.105 172.446 361.234C172.489 360.366 172.758 359.503 173.255 358.643ZM175.087 359.701C174.676 360.413 174.536 361.102 174.668 361.767C174.805 362.436 175.249 362.987 175.998 363.419C176.747 363.851 177.445 363.96 178.093 363.745C178.744 363.539 179.277 363.078 179.691 362.359C180.106 361.641 180.241 360.946 180.098 360.273C179.956 359.611 179.511 359.063 178.762 358.631C178.013 358.198 177.315 358.09 176.667 358.305C176.025 358.524 175.498 358.989 175.087 359.701ZM181.533 363.423C181.182 364.03 181.049 364.608 181.134 365.156C181.221 365.714 181.574 366.172 182.194 366.53C182.814 366.888 183.388 366.965 183.914 366.762C184.444 366.568 184.884 366.168 185.235 365.56C185.586 364.952 185.714 364.368 185.621 363.806C185.534 363.248 185.18 362.79 184.56 362.432C183.94 362.074 183.367 361.997 182.84 362.201C182.32 362.408 181.884 362.815 181.533 363.423Z" fill="white"/>
<path d="M510.142 191.803L508.274 195.038L496.607 188.302C495.328 187.563 494.377 186.612 493.756 185.446C493.13 184.287 492.859 183.006 492.94 181.604C493.027 180.204 493.49 178.778 494.329 177.325C495.171 175.866 496.177 174.749 497.345 173.974C498.519 173.202 499.764 172.797 501.081 172.759C502.397 172.721 503.695 173.071 504.974 173.809L516.641 180.545L514.774 183.78L503.377 177.2C502.632 176.771 501.876 176.551 501.106 176.541C500.334 176.536 499.609 176.738 498.932 177.145C498.261 177.556 497.688 178.172 497.215 178.991C496.742 179.811 496.495 180.614 496.475 181.401C496.457 182.197 496.645 182.925 497.039 183.586C497.432 184.248 498.001 184.793 498.745 185.223L510.142 191.803ZM494.491 195.792L486.643 191.261L488.466 188.104L501.86 195.837L500.118 198.854L497.842 197.54L497.751 197.697C498.323 198.438 498.636 199.273 498.688 200.203C498.737 201.138 498.473 202.106 497.896 203.106C497.362 204.03 496.7 204.721 495.908 205.179C495.114 205.642 494.232 205.847 493.264 205.791C492.293 205.742 491.274 205.406 490.208 204.782L481.679 199.859L483.502 196.702L491.542 201.344C492.437 201.861 493.272 202.033 494.046 201.86C494.817 201.692 495.437 201.202 495.907 200.388C496.226 199.836 496.388 199.274 496.392 198.703C496.398 198.141 496.246 197.607 495.933 197.101C495.617 196.601 495.137 196.164 494.491 195.792ZM489.359 217.489L486.918 216.079L491.363 208.379L493.805 209.789L489.359 217.489ZM495.916 213.543L494.094 216.699L481.519 209.44C481.095 209.195 480.732 209.071 480.432 209.068C480.134 209.074 479.882 209.161 479.676 209.329C479.471 209.497 479.292 209.712 479.141 209.974C479.027 210.171 478.938 210.36 478.873 210.539C478.805 210.725 478.757 210.868 478.73 210.968L475.955 210.076C475.994 209.873 476.069 209.595 476.181 209.241C476.289 208.893 476.467 208.491 476.713 208.037C477.147 207.233 477.677 206.59 478.304 206.107C478.938 205.628 479.641 205.363 480.414 205.313C481.183 205.269 481.985 205.492 482.819 205.981L495.916 213.543ZM474.441 212.396L487.835 220.129L486.012 223.286L472.618 215.553L474.441 212.396ZM488.82 222.814C489.108 222.314 489.522 221.979 490.062 221.81C490.607 221.644 491.115 221.697 491.586 221.969C492.063 222.244 492.363 222.658 492.486 223.21C492.615 223.765 492.535 224.292 492.247 224.792C491.955 225.298 491.538 225.631 490.996 225.791C490.456 225.96 489.948 225.907 489.471 225.631C489.001 225.36 488.701 224.946 488.572 224.391C488.445 223.845 488.528 223.319 488.82 222.814ZM480.277 233.22L477.835 231.81L482.281 224.11L484.722 225.52L480.277 233.22ZM486.834 229.274L485.011 232.43L472.437 225.171C472.013 224.926 471.65 224.802 471.35 224.799C471.051 224.805 470.8 224.892 470.594 225.06C470.388 225.228 470.21 225.443 470.059 225.705C469.945 225.902 469.856 226.091 469.791 226.27C469.722 226.456 469.675 226.599 469.648 226.699L466.873 225.807C466.912 225.604 466.987 225.326 467.099 224.972C467.207 224.624 467.384 224.222 467.631 223.768C468.064 222.964 468.595 222.321 469.222 221.838C469.855 221.359 470.558 221.094 471.331 221.044C472.101 221 472.902 221.223 473.736 221.712L486.834 229.274ZM481.229 241.882L463.37 231.571L465.193 228.415L483.051 238.725L481.229 241.882ZM457.811 240.596C458.586 239.253 459.535 238.254 460.657 237.6C461.781 236.955 463.009 236.667 464.34 236.738C465.677 236.813 467.046 237.254 468.447 238.063C469.824 238.858 470.883 239.818 471.621 240.942C472.362 242.075 472.75 243.284 472.784 244.567C472.824 245.853 472.475 247.136 471.736 248.415C471.26 249.241 470.676 249.942 469.986 250.52C469.298 251.108 468.515 251.524 467.638 251.769C466.756 252.02 465.795 252.061 464.752 251.893C463.715 251.729 462.61 251.308 461.435 250.63L460.468 250.071L466.806 239.092L468.934 240.321L464.342 248.273C464.95 248.617 465.563 248.796 466.182 248.812C466.806 248.832 467.388 248.691 467.926 248.389C468.461 248.094 468.903 247.643 469.252 247.039C469.625 246.394 469.795 245.736 469.763 245.067C469.737 244.4 469.55 243.785 469.202 243.219C468.856 242.663 468.386 242.21 467.79 241.858L465.933 240.786C465.154 240.336 464.403 240.092 463.681 240.055C462.964 240.021 462.31 240.174 461.718 240.515C461.132 240.858 460.641 241.373 460.245 242.059C459.98 242.519 459.804 242.971 459.717 243.417C459.636 243.866 459.644 244.301 459.742 244.722C459.84 245.143 460.038 245.532 460.335 245.89L458.302 248.646C457.63 248.01 457.155 247.263 456.876 246.404C456.599 245.555 456.534 244.633 456.681 243.641C456.833 242.651 457.21 241.637 457.811 240.596ZM449.987 254.208C450.594 253.156 451.408 252.37 452.429 251.851C453.45 251.332 454.614 251.128 455.921 251.239C457.229 251.351 458.618 251.831 460.089 252.68C461.577 253.54 462.692 254.509 463.433 255.588C464.177 256.676 464.568 257.79 464.608 258.929C464.654 260.071 464.38 261.157 463.786 262.186C463.333 262.971 462.826 263.539 462.267 263.89C461.713 264.245 461.165 264.463 460.622 264.545C460.084 264.63 459.606 264.66 459.186 264.635L459.111 264.766L465.79 268.622L463.963 271.787L446.104 261.477L447.896 258.372L450.007 259.591L450.117 259.399C449.886 259.048 449.676 258.613 449.488 258.093C449.305 257.577 449.232 256.992 449.268 256.339C449.304 255.686 449.544 254.975 449.987 254.208ZM452.068 256.584C451.682 257.252 451.534 257.926 451.622 258.605C451.717 259.287 452.019 259.939 452.529 260.559C453.039 261.179 453.727 261.739 454.593 262.239C455.46 262.739 456.283 263.052 457.063 263.177C457.84 263.307 458.542 263.24 459.169 262.974C459.792 262.713 460.3 262.243 460.692 261.563C461.099 260.859 461.254 260.167 461.16 259.484C461.066 258.802 460.765 258.155 460.257 257.544C459.749 256.934 459.08 256.388 458.248 255.908C457.411 255.425 456.596 255.113 455.801 254.972C455.009 254.84 454.288 254.901 453.638 255.153C452.991 255.415 452.468 255.892 452.068 256.584ZM442.848 266.674C443.153 266.145 443.601 265.799 444.191 265.636C444.781 265.473 445.342 265.549 445.874 265.863C446.4 266.16 446.74 266.604 446.894 267.197C447.048 267.79 446.972 268.35 446.667 268.879C446.372 269.391 445.929 269.728 445.339 269.891C444.745 270.06 444.185 269.997 443.658 269.7C443.307 269.49 443.038 269.21 442.851 268.862C442.662 268.52 442.563 268.153 442.557 267.762C442.553 267.38 442.649 267.017 442.848 266.674Z" fill="white"/>
</g>
<path d="M546.6 155.59C559.738 163.175 564.239 179.975 556.654 193.113L305.008 628.976C297.423 642.113 280.624 646.615 267.486 639.03L24.9989 499.03C11.861 491.444 7.35962 474.645 14.9448 461.507L266.59 25.6443C274.176 12.5063 290.975 8.00497 304.113 15.5901L546.6 155.59Z" stroke="url(#paint1_linear_1_13635)" stroke-opacity="0.3" stroke-width="1.77215"/>
</g>
<defs>
<filter id="filter0_b_1_13635" x="-21.2656" y="-20.6203" width="614.13" height="695.86" filterUnits="userSpaceOnUse" color-interpolation-filters="sRGB">
<feFlood flood-opacity="0" result="BackgroundImageFix"/>
<feGaussianBlur in="BackgroundImageFix" stdDeviation="10.6329"/>
<feComposite in2="SourceAlpha" operator="in" result="effect1_backgroundBlur_1_13635"/>
<feBlend mode="normal" in="SourceGraphic" in2="effect1_backgroundBlur_1_13635" result="shape"/>
</filter>
<filter id="filter1_f_1_13635" x="-3.83264" y="-209.986" width="841" height="841" filterUnits="userSpaceOnUse" color-interpolation-filters="sRGB">
<feFlood flood-opacity="0" result="BackgroundImageFix"/>
<feBlend mode="normal" in="SourceGraphic" in2="BackgroundImageFix" result="shape"/>
<feGaussianBlur stdDeviation="113.418" result="effect1_foregroundBlur_1_13635"/>
</filter>
<linearGradient id="paint0_linear_1_13635" x1="557.61" y1="193.229" x2="-82.0368" y2="490.109" gradientUnits="userSpaceOnUse">
<stop stop-color="white" stop-opacity="0.3"/>
<stop offset="1" stop-color="white" stop-opacity="0"/>
</linearGradient>
<linearGradient id="paint1_linear_1_13635" x1="559.285" y1="161.891" x2="-11.2817" y2="464.336" gradientUnits="userSpaceOnUse">
<stop stop-color="white"/>
<stop offset="1" stop-color="white" stop-opacity="0.2"/>
</linearGradient>
<clipPath id="clip0_1_13635">
<path d="M547.043 154.823C560.605 162.653 565.251 179.994 557.421 193.556L305.776 629.419C297.946 642.98 280.605 647.627 267.043 639.797L24.5559 499.797C10.9941 491.967 6.34756 474.626 14.1774 461.064L265.823 25.2012C273.653 11.6395 290.994 6.99292 304.556 14.8228L547.043 154.823Z" fill="white"/>
</clipPath>
</defs>
</svg>
