<svg width="338" height="456" viewBox="0 0 338 456" fill="none" xmlns="http://www.w3.org/2000/svg">
<g filter="url(#filter0_b_1_13634)">
<g clip-path="url(#clip0_1_13634)">
<path d="M309 -1.23941e-06C324.66 -5.54903e-07 337.354 12.6947 337.354 28.3544L337.354 531.646C337.354 547.305 324.66 560 309 560L29 560C13.3403 560 0.645606 547.305 0.645607 531.646L0.645629 28.3544C0.645629 12.6947 13.3403 -1.41631e-05 29.0001 -1.34786e-05L309 -1.23941e-06Z" fill="black" fill-opacity="0.1"/>
<path d="M309 -1.23941e-06C324.66 -5.54903e-07 337.354 12.6947 337.354 28.3544L337.354 531.646C337.354 547.305 324.66 560 309 560L29 560C13.3403 560 0.645606 547.305 0.645607 531.646L0.645629 28.3544C0.645629 12.6947 13.3403 -1.41631e-05 29.0001 -1.34786e-05L309 -1.23941e-06Z" fill="url(#paint0_linear_1_13634)"/>
<g filter="url(#filter1_f_1_13634)">
<path opacity="0.3" d="M223.937 -28.3544C302.235 -28.3544 365.709 35.1191 365.709 113.418L223.937 113.418L223.937 -28.3544Z" fill="#EE46BC"/>
<path opacity="0.3" d="M365.709 113.418C365.709 191.716 302.235 255.19 223.937 255.19L223.937 113.418L365.709 113.418Z" fill="#EF6820"/>
<path opacity="0.3" d="M223.937 -28.3544L223.937 113.418L82.1646 113.418C82.1646 35.1191 145.638 -28.3544 223.937 -28.3544Z" fill="#2E90FA"/>
<path opacity="0.3" d="M223.937 113.418L223.937 255.19C145.638 255.19 82.1646 191.716 82.1646 113.418L223.937 113.418Z" fill="#17B26A"/>
</g>
<path d="M78.6203 451.899C82.5352 451.899 85.7089 455.072 85.7089 458.987L85.7089 525.148C85.7089 529.063 82.5352 532.236 78.6203 532.236L36.0887 532.236C32.1737 532.236 29.0001 529.063 29.0001 525.148L29.0001 458.987C29.0001 455.072 32.1737 451.899 36.0887 451.899L78.6203 451.899Z" fill="white" fill-opacity="0.1"/>
<path d="M37.9874 33.8977L55.1418 33.8977L52.8026 30.0557L56.1058 30.0557L58.4026 33.8977L58.4026 36.9175L37.9874 36.9175L37.9874 33.8977ZM38.0015 45.9873L40.6385 46.0015L48.6061 54.8906C49.2393 55.6089 49.8442 56.0957 50.4208 56.3509C50.9973 56.6155 51.5739 56.7478 52.1504 56.7478C52.8782 56.7478 53.5303 56.5872 54.1069 56.2658C54.6929 55.9445 55.156 55.5003 55.4962 54.9332C55.8365 54.3661 56.0066 53.7139 56.0066 52.9767C56.0066 52.2206 55.827 51.5448 55.4679 50.9494C55.1182 50.3634 54.6503 49.905 54.0643 49.5742C53.4783 49.2434 52.8451 49.0827 52.1646 49.0922L52.1646 46.0582C53.4878 46.0582 54.6456 46.356 55.638 46.9514C56.6399 47.5563 57.4196 48.3833 57.9772 49.4324C58.5443 50.4815 58.8279 51.6819 58.8279 53.0334C58.8279 54.3188 58.5349 55.4719 57.9489 56.4927C57.3723 57.5134 56.5784 58.3168 55.5671 58.9028C54.5558 59.4982 53.4027 59.796 52.1079 59.796C51.1722 59.796 50.3783 59.6731 49.7261 59.4273C49.0739 59.1816 48.4691 58.813 47.9114 58.3215C47.3538 57.83 46.7489 57.2157 46.0967 56.4785L39.9722 49.6167L40.8228 49.2906L40.8228 59.796L38.0015 59.796L38.0015 45.9873ZM37.6046 73.1626C37.6046 72.1513 37.7936 71.2014 38.1717 70.313C38.5592 69.4246 39.1074 68.6543 39.8162 68.0021C40.5251 67.3594 41.3615 66.8916 42.3256 66.5986L43.1195 69.4624C42.2405 69.7365 41.5647 70.2138 41.0922 70.8943C40.6291 71.5748 40.4022 72.3309 40.4117 73.1626C40.4211 73.9093 40.596 74.5662 40.9362 75.1333C41.2765 75.7004 41.7349 76.1446 42.3114 76.4659C42.8974 76.7873 43.5685 76.9479 44.3246 76.9479C45.4588 76.9479 46.3945 76.5935 47.1317 75.8847C47.8689 75.1852 48.2375 74.2685 48.2375 73.1343C48.2375 72.8129 48.1902 72.4821 48.0957 72.1419C48.0012 71.8111 47.8783 71.4992 47.7271 71.2062L50.0664 69.8168L56.4319 77.0188L55.5813 77.3307L55.5813 67.4067L58.4026 67.4067L58.4026 79.6841L55.5813 79.6841L49.8253 73.7014L50.7894 73.673C50.7894 74.9584 50.5011 76.0737 49.9246 77.0188C49.3575 77.964 48.5825 78.6917 47.5995 79.2021C46.626 79.722 45.5344 79.9819 44.3246 79.9819C43.0203 79.9819 41.8625 79.6747 40.8512 79.0604C39.8399 78.4555 39.0459 77.6379 38.4694 76.6077C37.8928 75.5869 37.6046 74.4386 37.6046 73.1626ZM37.9874 96.5767L41.5458 96.5767L41.5458 87.3616L44.3529 87.3616L58.4026 93.9965L58.4026 97.3848L44.3529 90.7499L44.3529 96.5767L49.882 96.5767L49.882 99.5823L44.3529 99.5823L44.3529 101.61L41.5458 101.61L41.5458 99.5823L37.9874 99.5823L37.9874 96.5767ZM37.9874 122.755L55.1418 122.755L52.8026 118.913L56.1058 118.913L58.4026 122.755L58.4026 125.774L37.9874 125.774L37.9874 122.755ZM38.0015 134.844L40.6385 134.858L48.6061 143.747C49.2393 144.466 49.8442 144.953 50.4208 145.208C50.9973 145.472 51.5739 145.605 52.1504 145.605C52.8782 145.605 53.5303 145.444 54.1069 145.123C54.6928 144.801 55.156 144.357 55.4962 143.79C55.8365 143.223 56.0066 142.571 56.0066 141.834C56.0066 141.077 55.827 140.402 55.4679 139.806C55.1182 139.22 54.6503 138.762 54.0643 138.431C53.4783 138.1 52.8451 137.94 52.1646 137.949L52.1646 134.915C53.4878 134.915 54.6456 135.213 55.638 135.808C56.6399 136.413 57.4196 137.24 57.9772 138.289C58.5443 139.338 58.8279 140.539 58.8279 141.89C58.8279 143.176 58.5349 144.329 57.9489 145.349C57.3723 146.37 56.5784 147.174 55.5671 147.76C54.5558 148.355 53.4027 148.653 52.1079 148.653C51.1722 148.653 50.3782 148.53 49.7261 148.284C49.0739 148.038 48.469 147.67 47.9114 147.178C47.3538 146.687 46.7489 146.073 46.0967 145.335L39.9722 138.474L40.8228 138.147L40.8228 148.653L38.0015 148.653L38.0015 134.844ZM37.6046 162.019C37.6046 161.008 37.7936 160.058 38.1717 159.17C38.5592 158.281 39.1074 157.511 39.8162 156.859C40.5251 156.216 41.3615 155.748 42.3256 155.455L43.1195 158.319C42.2405 158.593 41.5647 159.071 41.0922 159.751C40.629 160.432 40.4022 161.188 40.4117 162.019C40.4211 162.766 40.596 163.423 40.9362 163.99C41.2765 164.557 41.7349 165.001 42.3114 165.323C42.8974 165.644 43.5685 165.805 44.3246 165.805C45.4588 165.805 46.3944 165.45 47.1317 164.741C47.8689 164.042 48.2375 163.125 48.2375 161.991C48.2375 161.67 48.1902 161.339 48.0957 160.999C48.0012 160.668 47.8783 160.356 47.7271 160.063L50.0663 158.674L56.4319 165.876L55.5813 166.188L55.5813 156.263L58.4026 156.263L58.4026 168.541L55.5813 168.541L49.8253 162.558L50.7894 162.53C50.7894 163.815 50.5011 164.93 49.9246 165.876C49.3575 166.821 48.5825 167.549 47.5995 168.059C46.626 168.579 45.5344 168.839 44.3246 168.839C43.0203 168.839 41.8625 168.532 40.8512 167.917C39.8398 167.312 39.0459 166.495 38.4694 165.464C37.8928 164.444 37.6046 163.295 37.6046 162.019ZM37.9874 185.434L41.5458 185.434L41.5458 176.218L44.3529 176.218L58.4026 182.853L58.4026 186.242L44.3529 179.607L44.3529 185.434L49.882 185.434L49.882 188.439L44.3529 188.439L44.3529 190.466L41.5458 190.466L41.5458 188.439L37.9874 188.439L37.9874 185.434ZM37.9874 211.611L55.1418 211.611L52.8025 207.769L56.1058 207.769L58.4025 211.611L58.4025 214.631L37.9874 214.631L37.9874 211.611ZM38.0015 223.701L40.6385 223.715L48.6061 232.604C49.2393 233.323 49.8442 233.809 50.4208 234.064C50.9973 234.329 51.5739 234.461 52.1504 234.461C52.8782 234.461 53.5303 234.301 54.1069 233.979C54.6928 233.658 55.156 233.214 55.4962 232.647C55.8365 232.08 56.0066 231.428 56.0066 230.69C56.0066 229.934 55.827 229.258 55.4679 228.663C55.1182 228.077 54.6503 227.619 54.0643 227.288C53.4783 226.957 52.8451 226.796 52.1646 226.806L52.1646 223.772C53.4878 223.772 54.6456 224.07 55.638 224.665C56.6398 225.27 57.4196 226.097 57.9772 227.146C58.5443 228.195 58.8279 229.395 58.8279 230.747C58.8279 232.032 58.5349 233.186 57.9489 234.206C57.3723 235.227 56.5784 236.03 55.5671 236.616C54.5558 237.212 53.4027 237.51 52.1079 237.51C51.1722 237.51 50.3782 237.387 49.7261 237.141C49.0739 236.895 48.469 236.527 47.9114 236.035C47.3538 235.544 46.7489 234.929 46.0967 234.192L39.9722 227.33L40.8228 227.004L40.8228 237.51L38.0015 237.51L38.0015 223.701ZM37.6046 250.876C37.6046 249.865 37.7936 248.915 38.1717 248.027C38.5592 247.138 39.1074 246.368 39.8162 245.716C40.5251 245.073 41.3615 244.605 42.3256 244.312L43.1195 247.176C42.2405 247.45 41.5647 247.927 41.0922 248.608C40.629 249.288 40.4022 250.045 40.4117 250.876C40.4211 251.623 40.596 252.28 40.9362 252.847C41.2765 253.414 41.7349 253.858 42.3114 254.18C42.8974 254.501 43.5685 254.662 44.3246 254.662C45.4587 254.662 46.3944 254.307 47.1317 253.598C47.8689 252.899 48.2375 251.982 48.2375 250.848C48.2375 250.527 48.1902 250.196 48.0957 249.855C48.0012 249.525 47.8783 249.213 47.7271 248.92L50.0663 247.53L56.4319 254.732L55.5813 255.044L55.5813 245.12L58.4025 245.12L58.4025 257.398L55.5813 257.398L49.8253 251.415L50.7894 251.387C50.7894 252.672 50.5011 253.787 49.9246 254.732C49.3575 255.678 48.5825 256.405 47.5995 256.916C46.626 257.436 45.5344 257.695 44.3246 257.695C43.0203 257.695 41.8625 257.388 40.8512 256.774C39.8398 256.169 39.0459 255.352 38.4694 254.321C37.8928 253.301 37.6046 252.152 37.6046 250.876ZM37.9874 274.29L41.5458 274.29L41.5458 265.075L44.3529 265.075L58.4025 271.71L58.4025 275.098L44.3529 268.464L44.3529 274.29L49.882 274.29L49.882 277.296L44.3529 277.296L44.3529 279.323L41.5458 279.323L41.5458 277.296L37.9874 277.296L37.9874 274.29ZM37.9874 300.468L55.1418 300.468L52.8025 296.626L56.1058 296.626L58.4025 300.468L58.4025 303.488L37.9874 303.488L37.9874 300.468ZM38.0015 312.558L40.6385 312.572L48.6061 321.461C49.2393 322.179 49.8442 322.666 50.4208 322.921C50.9973 323.186 51.5739 323.318 52.1504 323.318C52.8782 323.318 53.5303 323.158 54.1068 322.836C54.6928 322.515 55.156 322.071 55.4962 321.504C55.8365 320.937 56.0066 320.284 56.0066 319.547C56.0066 318.791 55.827 318.115 55.4679 317.52C55.1182 316.934 54.6503 316.475 54.0643 316.145C53.4783 315.814 52.8451 315.653 52.1646 315.663L52.1646 312.629C53.4878 312.629 54.6456 312.926 55.638 313.522C56.6398 314.127 57.4196 314.954 57.9772 316.003C58.5443 317.052 58.8279 318.252 58.8279 319.604C58.8279 320.889 58.5349 322.042 57.9489 323.063C57.3723 324.084 56.5784 324.887 55.5671 325.473C54.5558 326.069 53.4027 326.366 52.1079 326.366C51.1722 326.366 50.3782 326.244 49.7261 325.998C49.0739 325.752 48.469 325.383 47.9114 324.892C47.3538 324.4 46.7489 323.786 46.0967 323.049L39.9722 316.187L40.8228 315.861L40.8228 326.366L38.0015 326.366L38.0015 312.558ZM37.6046 339.733C37.6046 338.722 37.7936 337.772 38.1717 336.883C38.5592 335.995 39.1074 335.225 39.8162 334.573C40.5251 333.93 41.3615 333.462 42.3256 333.169L43.1195 336.033C42.2405 336.307 41.5647 336.784 41.0922 337.465C40.629 338.145 40.4022 338.901 40.4117 339.733C40.4211 340.48 40.596 341.137 40.9362 341.704C41.2765 342.271 41.7349 342.715 42.3114 343.036C42.8974 343.358 43.5684 343.518 44.3246 343.518C45.4587 343.518 46.3944 343.164 47.1317 342.455C47.8689 341.756 48.2375 340.839 48.2375 339.705C48.2375 339.383 48.1902 339.053 48.0957 338.712C48.0012 338.381 47.8783 338.07 47.7271 337.777L50.0663 336.387L56.4319 343.589L55.5813 343.901L55.5813 333.977L58.4025 333.977L58.4025 346.255L55.5813 346.255L49.8253 340.272L50.7894 340.243C50.7894 341.529 50.5011 342.644 49.9246 343.589C49.3575 344.534 48.5825 345.262 47.5995 345.773C46.626 346.292 45.5344 346.552 44.3246 346.552C43.0203 346.552 41.8625 346.245 40.8511 345.631C39.8398 345.026 39.0459 344.208 38.4694 343.178C37.8928 342.157 37.6046 341.009 37.6046 339.733ZM37.9874 363.147L41.5458 363.147L41.5458 353.932L44.3529 353.932L58.4025 360.567L58.4025 363.955L44.3529 357.32L44.3529 363.147L49.882 363.147L49.882 366.153L44.3529 366.153L44.3529 368.18L41.5458 368.18L41.5458 366.153L37.9874 366.153L37.9874 363.147Z" fill="white"/>
<path d="M87.519 30.0557L102.83 30.0557L102.83 32.278L89.6137 32.278L89.6137 39.2106L87.519 39.2106L87.519 30.0557ZM87.519 41.0159L102.83 45.9921L102.83 49.1926L87.519 54.1688L87.519 51.8615L101.491 47.2787L101.491 47.8529L87.519 43.3232L87.519 41.0159ZM90.9747 43.5997L93.0588 43.5997L93.0588 51.5957L90.9747 51.5957L90.9747 43.5997ZM87.519 57.1397L102.83 57.1397L102.83 59.3939L91.4532 66.9326L102.83 66.9326L102.83 69.1868L87.519 69.1868L87.519 66.9326L98.9069 59.3939L87.519 59.3939L87.519 57.1397ZM87.519 72.1545L102.83 77.1308L102.83 80.3313L87.519 85.3075L87.519 83.0001L101.491 78.4173L101.491 78.9915L87.519 74.4619L87.519 72.1545ZM90.9747 74.7383L93.0588 74.7383L93.0588 82.7343L90.9747 82.7343L90.9747 74.7383ZM87.2001 99.1494C87.2001 98.0506 87.3879 97.0582 87.7636 96.1721C88.1464 95.2932 88.6887 94.5666 89.3904 93.9924C90.0993 93.4253 90.9393 93.0567 91.9104 92.8866L92.2613 95.2045C91.3256 95.4385 90.5955 95.9276 90.0709 96.6719C89.5535 97.4162 89.2947 98.2845 89.2947 99.2769C89.2947 99.8937 89.3904 100.461 89.5818 100.978C89.7803 101.496 90.0603 101.91 90.4218 102.222C90.7904 102.541 91.2299 102.701 91.7403 102.701C92.0168 102.701 92.2613 102.651 92.474 102.552C92.6866 102.46 92.8709 102.329 93.0269 102.158C93.1899 101.995 93.3282 101.793 93.4416 101.552C93.5621 101.318 93.6649 101.06 93.7499 100.776L94.9089 96.8526C95.0223 96.4699 95.1676 96.08 95.3449 95.683C95.5292 95.2861 95.7666 94.921 96.0573 94.5878C96.355 94.2618 96.7201 93.9959 97.1525 93.7904C97.592 93.5848 98.1236 93.482 98.7474 93.482C99.6902 93.482 100.488 93.723 101.14 94.2051C101.799 94.6942 102.295 95.3534 102.628 96.1828C102.969 97.0121 103.139 97.9407 103.139 98.9686C103.125 100.004 102.94 100.929 102.586 101.744C102.231 102.566 101.721 103.247 101.055 103.785C100.395 104.331 99.5945 104.707 98.6517 104.912L98.2476 102.531C98.8218 102.424 99.3145 102.197 99.7256 101.85C100.144 101.503 100.463 101.077 100.683 100.574C100.909 100.071 101.026 99.5251 101.033 98.9367C101.048 98.3696 100.963 97.8486 100.778 97.3737C100.594 96.9058 100.335 96.5301 100.002 96.2466C99.6689 95.9701 99.2861 95.8319 98.8537 95.8319C98.4284 95.8319 98.0846 95.9559 97.8223 96.204C97.5601 96.4521 97.3509 96.7569 97.195 97.1185C97.0461 97.4871 96.9221 97.8521 96.8228 98.2137L96.0254 101.042C95.9261 101.396 95.7914 101.797 95.6213 102.244C95.4583 102.697 95.2279 103.133 94.9302 103.551C94.6325 103.977 94.2355 104.328 93.7393 104.604C93.2502 104.88 92.6335 105.019 91.8892 105.019C91.1165 105.019 90.436 104.863 89.8476 104.551C89.2664 104.239 88.7773 103.81 88.3803 103.264C87.9904 102.726 87.6963 102.102 87.4978 101.393C87.2993 100.684 87.2001 99.9362 87.2001 99.1494ZM87.519 112.165L100.736 112.165L100.736 107.072L102.83 107.072L102.83 119.481L100.736 119.481L100.736 114.387L87.519 114.387L87.519 112.165ZM87.519 122.246L102.83 122.246L102.83 132.028L100.736 132.028L100.736 124.468L96.4401 124.468L96.4401 130.752L94.3454 130.752L94.3454 124.468L89.6137 124.468L89.6137 132.028L87.519 132.028L87.519 122.246ZM87.519 135.857L102.83 135.857L102.83 138.08L87.519 138.08L87.519 135.857ZM87.519 142.336L102.83 142.336L102.83 144.59L91.4532 152.129L102.83 152.129L102.83 154.383L87.519 154.383L87.519 152.129L98.9069 144.59L87.519 144.59L87.519 142.336ZM87.519 158.414L102.83 158.414L102.83 168.196L100.736 168.196L100.736 160.636L96.4401 160.636L96.4401 166.92L94.3454 166.92L94.3454 160.636L89.6137 160.636L89.6137 168.196L87.519 168.196L87.519 158.414ZM87.519 171.813L102.83 171.813L102.83 178.002C102.83 178.15 102.823 178.335 102.809 178.554C102.802 178.774 102.781 178.983 102.745 179.182C102.611 180.032 102.32 180.741 101.873 181.308C101.427 181.883 100.863 182.311 100.183 182.595C99.5023 182.878 98.7509 183.02 97.9287 183.02C96.7094 183.02 95.6568 182.708 94.7707 182.085C93.8917 181.461 93.3423 180.525 93.1226 179.277L93.0163 178.374L93.0163 174.035L87.519 174.035L87.519 171.813ZM87.519 180.766L93.7499 177.746L94.3241 179.99L87.519 183.307L87.519 180.766ZM95.1216 174.035L95.1216 177.916C95.1216 178.058 95.1287 178.214 95.1428 178.384C95.157 178.562 95.1818 178.728 95.2173 178.884C95.3236 179.338 95.5185 179.703 95.8021 179.979C96.0927 180.256 96.4259 180.454 96.8016 180.575C97.1773 180.695 97.553 180.755 97.9287 180.755C98.3044 180.755 98.6765 180.695 99.0451 180.575C99.4208 180.454 99.7504 180.256 100.034 179.979C100.325 179.703 100.523 179.338 100.629 178.884C100.672 178.728 100.7 178.562 100.714 178.384C100.729 178.214 100.736 178.058 100.736 177.916L100.736 174.035L95.1216 174.035Z" fill="white"/>
<path d="M87.2001 311.369C87.2001 310.327 87.4269 309.405 87.8806 308.604C88.3413 307.803 88.9722 307.172 89.7732 306.711C90.5742 306.258 91.4958 306.031 92.5378 306.031L97.8117 306.031C98.8537 306.031 99.7752 306.258 100.576 306.711C101.377 307.172 102.005 307.803 102.458 308.604C102.919 309.405 103.149 310.327 103.149 311.369C103.149 312.411 102.919 313.332 102.458 314.133C102.005 314.934 101.377 315.562 100.576 316.015C99.7752 316.476 98.8537 316.706 97.8117 316.706L92.5378 316.706C91.4958 316.706 90.5742 316.476 89.7732 316.015C88.9722 315.562 88.3413 314.934 87.8806 314.133C87.4269 313.332 87.2001 312.411 87.2001 311.369ZM89.3266 311.369C89.3266 311.936 89.4613 312.45 89.7307 312.91C90.0071 313.378 90.3758 313.75 90.8365 314.027C91.3044 314.303 91.8254 314.442 92.3995 314.442L97.9712 314.442C98.5383 314.442 99.0522 314.303 99.513 314.027C99.9808 313.75 100.349 313.378 100.619 312.91C100.895 312.45 101.033 311.936 101.033 311.369C101.033 310.802 100.895 310.284 100.619 309.816C100.349 309.355 99.9808 308.987 99.513 308.71C99.0522 308.434 98.5383 308.296 97.9712 308.296L92.3995 308.296C91.8254 308.296 91.3044 308.434 90.8365 308.71C90.3758 308.987 90.0071 309.355 89.7307 309.816C89.4613 310.284 89.3266 310.802 89.3266 311.369ZM87.2001 326.002C87.2001 325.009 87.434 324.116 87.9018 323.322C88.3768 322.528 89.0254 321.897 89.8476 321.43C90.6699 320.969 91.6056 320.738 92.6547 320.738L97.5352 320.738C98.6482 320.738 99.6264 320.969 100.47 321.43C101.313 321.897 101.969 322.542 102.437 323.365C102.905 324.194 103.139 325.148 103.139 326.225C103.139 327.033 102.986 327.792 102.682 328.5C102.377 329.209 101.923 329.822 101.321 330.34L99.8001 328.713C100.176 328.422 100.473 328.057 100.693 327.618C100.92 327.185 101.033 326.721 101.033 326.225C101.033 325.587 100.881 325.027 100.576 324.545C100.279 324.063 99.8851 323.684 99.396 323.407C98.9069 323.138 98.3823 323.003 97.8223 323.003L95.0152 323.003L95.5044 322.567C96.0785 323.007 96.5322 323.553 96.8654 324.205C97.1985 324.857 97.3651 325.555 97.3651 326.299C97.3651 327.249 97.1418 328.096 96.6952 328.841C96.2558 329.592 95.6568 330.18 94.8983 330.606C94.1398 331.038 93.2856 331.254 92.3358 331.254C91.3788 331.254 90.5104 331.013 89.7307 330.531C88.958 330.056 88.3413 329.418 87.8806 328.617C87.4269 327.823 87.2001 326.952 87.2001 326.002ZM89.3373 326.002C89.3373 326.555 89.472 327.058 89.7413 327.512C90.0107 327.965 90.3722 328.327 90.8259 328.596C91.2795 328.865 91.7828 329 92.3358 329C92.8887 329 93.392 328.865 93.8456 328.596C94.2993 328.334 94.6608 327.976 94.9302 327.522C95.1995 327.069 95.3342 326.565 95.3342 326.012C95.3342 325.459 95.1995 324.953 94.9302 324.492C94.6608 324.038 94.2993 323.677 93.8456 323.407C93.392 323.138 92.8887 323.003 92.3358 323.003C91.7899 323.003 91.2902 323.138 90.8365 323.407C90.3828 323.677 90.0178 324.038 89.7413 324.492C89.472 324.945 89.3373 325.449 89.3373 326.002ZM102.83 338.88L102.83 341.124L87.519 337.041L87.519 334.797L102.83 338.88ZM87.5297 344.536L89.5074 344.547L95.4831 351.214C95.958 351.752 96.4117 352.117 96.8441 352.309C97.2765 352.507 97.7089 352.607 98.1413 352.607C98.6871 352.607 99.1763 352.486 99.6087 352.245C100.048 352.004 100.395 351.671 100.651 351.246C100.906 350.82 101.033 350.331 101.033 349.778C101.033 349.211 100.899 348.704 100.629 348.258C100.367 347.818 100.016 347.474 99.5768 347.226C99.1373 346.978 98.6623 346.858 98.152 346.865L98.152 344.589C99.1444 344.589 100.013 344.813 100.757 345.259C101.508 345.713 102.093 346.333 102.511 347.12C102.937 347.907 103.149 348.807 103.149 349.821C103.149 350.785 102.93 351.65 102.49 352.415C102.058 353.181 101.462 353.783 100.704 354.223C99.9454 354.669 99.0806 354.893 98.1094 354.893C97.4076 354.893 96.8122 354.8 96.3231 354.616C95.834 354.432 95.3803 354.155 94.9621 353.787C94.5439 353.418 94.0902 352.957 93.6011 352.405L89.0076 347.258L89.6456 347.014L89.6456 354.893L87.5297 354.893L87.5297 344.536ZM87.2001 363.408C87.2001 362.408 87.3985 361.522 87.7955 360.75C88.1995 359.984 88.7595 359.381 89.4755 358.942C90.1914 358.51 91.0208 358.293 91.9636 358.293C92.8426 358.293 93.6471 358.499 94.3773 358.91C95.1074 359.321 95.6816 359.934 96.0998 360.75L95.3342 360.707C95.7383 360.055 96.2416 359.552 96.8441 359.197C97.4537 358.85 98.1342 358.676 98.8856 358.676C99.7575 358.676 100.512 358.878 101.15 359.282C101.788 359.686 102.281 360.243 102.628 360.952C102.976 361.668 103.149 362.486 103.149 363.408C103.149 364.329 102.976 365.144 102.628 365.853C102.281 366.562 101.788 367.119 101.15 367.523C100.512 367.927 99.7575 368.129 98.8856 368.129C98.1342 368.129 97.4573 367.962 96.8547 367.629C96.2522 367.296 95.7454 366.786 95.3342 366.098L96.0785 366.066C95.6816 366.874 95.1145 367.487 94.3773 367.906C93.6471 368.324 92.8426 368.533 91.9636 368.533C91.0208 368.533 90.1914 368.313 89.4755 367.874C88.7595 367.434 88.1995 366.828 87.7955 366.055C87.3985 365.283 87.2001 364.4 87.2001 363.408ZM89.316 363.408C89.316 364.23 89.5393 364.896 89.9859 365.407C90.4395 365.917 91.0988 366.172 91.9636 366.172C92.8284 366.172 93.4876 365.917 93.9413 365.407C94.4021 364.903 94.6325 364.237 94.6325 363.408C94.6325 362.578 94.4021 361.909 93.9413 361.398C93.4876 360.895 92.8284 360.643 91.9636 360.643C91.0988 360.643 90.4395 360.898 89.9859 361.409C89.5393 361.919 89.316 362.585 89.316 363.408ZM96.759 363.408C96.759 364.11 96.9327 364.677 97.2801 365.109C97.6345 365.549 98.1697 365.768 98.8856 365.768C99.6016 365.768 100.137 365.549 100.491 365.109C100.853 364.677 101.033 364.11 101.033 363.408C101.033 362.706 100.853 362.135 100.491 361.696C100.137 361.256 99.6016 361.037 98.8856 361.037C98.1697 361.037 97.6345 361.256 97.2801 361.696C96.9327 362.135 96.759 362.706 96.759 363.408Z" fill="white"/>
<path d="M295.533 50.4761L295.533 54.2118L282.06 54.2118C280.584 54.2118 279.285 53.8627 278.164 53.1646C277.043 52.4732 276.167 51.4998 275.536 50.2445C274.911 48.9893 274.599 47.5226 274.599 45.8444C274.599 44.1595 274.911 42.6894 275.536 41.4341C276.167 40.1789 277.043 39.2055 278.164 38.5141C279.285 37.8227 280.584 37.477 282.06 37.477L295.533 37.477L295.533 41.2126L282.373 41.2126C281.513 41.2126 280.748 41.4006 280.077 41.7765C279.406 42.1591 278.879 42.6961 278.496 43.3875C278.12 44.0789 277.932 44.8979 277.932 45.8444C277.932 46.7909 278.12 47.6098 278.496 48.3012C278.879 48.9993 279.406 49.5364 280.077 49.9123C280.748 50.2882 281.513 50.4761 282.373 50.4761L295.533 50.4761ZM283.974 61.756L274.911 61.756L274.911 58.111L290.377 58.111L290.377 61.5949L287.749 61.5949L287.749 61.7761C288.615 62.1319 289.303 62.6991 289.814 63.4778C290.324 64.2632 290.579 65.2332 290.579 66.3877C290.579 67.4551 290.351 68.3848 289.894 69.1769C289.438 69.9757 288.777 70.5933 287.911 71.0296C287.045 71.4726 285.994 71.6908 284.759 71.6841L274.911 71.6841L274.911 68.0391L284.195 68.0391C285.229 68.0391 286.038 67.7706 286.622 67.2335C287.206 66.7032 287.498 65.9682 287.498 65.0284C287.498 64.3907 287.357 63.8235 287.075 63.3268C286.8 62.8367 286.4 62.4508 285.877 62.1688C285.353 61.8936 284.719 61.756 283.974 61.756ZM290.377 83.1124L287.558 83.1124L287.558 74.2215L290.377 74.2215L290.377 83.1124ZM294.083 76.4165L294.083 80.0615L279.563 80.0615C279.073 80.0615 278.697 80.1354 278.436 80.283C278.181 80.4374 278.006 80.6388 277.912 80.8872C277.818 81.1355 277.771 81.4108 277.771 81.7128C277.771 81.9411 277.788 82.1492 277.821 82.3371C277.855 82.5318 277.885 82.6795 277.912 82.7802L275.062 83.3944C274.995 83.1997 274.922 82.9211 274.841 82.5586C274.76 82.2029 274.713 81.7665 274.7 81.2497C274.673 80.3367 274.811 79.5144 275.113 78.7827C275.422 78.0511 275.898 77.4704 276.543 77.0408C277.187 76.6179 277.993 76.4098 278.959 76.4165L294.083 76.4165ZM274.911 86.1608L290.377 86.1608L290.377 89.8058L274.911 89.8058L274.911 86.1608ZM292.573 87.9934C292.573 87.4161 292.764 86.9194 293.146 86.5032C293.536 86.087 294.002 85.8789 294.546 85.8789C295.097 85.8789 295.563 86.087 295.946 86.5032C296.335 86.9194 296.53 87.4161 296.53 87.9934C296.53 88.5774 296.335 89.0741 295.946 89.4836C295.563 89.8998 295.097 90.1079 294.546 90.1079C294.002 90.1079 293.536 89.8998 293.146 89.4836C292.764 89.0741 292.573 88.5774 292.573 87.9934ZM290.377 101.277L287.558 101.277L287.558 92.386L290.377 92.386L290.377 101.277ZM294.083 94.5811L294.083 98.2261L279.563 98.2261C279.073 98.2261 278.697 98.2999 278.436 98.4476C278.181 98.602 278.006 98.8034 277.912 99.0517C277.818 99.3001 277.771 99.5753 277.771 99.8774C277.771 100.106 277.788 100.314 277.821 100.502C277.855 100.696 277.885 100.844 277.912 100.945L275.062 101.559C274.995 101.364 274.922 101.086 274.841 100.723C274.76 100.367 274.713 99.9311 274.7 99.4142C274.673 98.5013 274.811 97.679 275.113 96.9473C275.422 96.2156 275.898 95.635 276.543 95.2054C277.187 94.7825 277.993 94.5744 278.959 94.5811L294.083 94.5811ZM295.533 108.303L274.911 108.303L274.911 104.658L295.533 104.658L295.533 108.303ZM274.609 118.898C274.609 117.347 274.932 116.008 275.576 114.88C276.227 113.759 277.147 112.897 278.335 112.293C279.53 111.688 280.936 111.386 282.554 111.386C284.145 111.386 285.541 111.688 286.743 112.293C287.951 112.903 288.891 113.756 289.562 114.85C290.24 115.944 290.579 117.23 290.579 118.707C290.579 119.66 290.424 120.559 290.116 121.405C289.814 122.258 289.344 123.009 288.706 123.66C288.068 124.318 287.256 124.835 286.269 125.211C285.289 125.587 284.121 125.775 282.765 125.775L281.648 125.775L281.648 113.098L284.104 113.098L284.104 122.281C284.803 122.274 285.424 122.123 285.967 121.828C286.518 121.533 286.951 121.12 287.266 120.589C287.582 120.066 287.739 119.455 287.739 118.757C287.739 118.012 287.558 117.357 287.196 116.793C286.84 116.23 286.37 115.79 285.786 115.474C285.209 115.166 284.574 115.008 283.883 115.001L281.738 115.001C280.839 115.001 280.067 115.166 279.422 115.494C278.785 115.823 278.295 116.283 277.952 116.874C277.617 117.465 277.449 118.156 277.449 118.948C277.449 119.478 277.523 119.958 277.67 120.388C277.825 120.818 278.05 121.19 278.345 121.506C278.64 121.821 279.006 122.059 279.443 122.221L279.06 125.624C278.16 125.409 277.375 125 276.704 124.396C276.039 123.798 275.522 123.033 275.153 122.1C274.791 121.167 274.609 120.099 274.609 118.898ZM274.64 134.598C274.64 133.383 274.952 132.296 275.576 131.336C276.2 130.376 277.106 129.617 278.295 129.06C279.483 128.503 280.926 128.224 282.624 128.224C284.343 128.224 285.793 128.506 286.974 129.07C288.162 129.641 289.058 130.409 289.663 131.376C290.273 132.343 290.579 133.42 290.579 134.608C290.579 135.514 290.424 136.259 290.116 136.843C289.814 137.427 289.448 137.891 289.018 138.233C288.595 138.575 288.196 138.84 287.82 139.028L287.82 139.179L295.533 139.179L295.533 142.834L274.911 142.834L274.911 139.25L277.348 139.25L277.348 139.028C276.972 138.84 276.573 138.569 276.15 138.213C275.734 137.857 275.378 137.387 275.083 136.803C274.787 136.219 274.64 135.484 274.64 134.598ZM277.63 135.615C277.63 136.387 277.838 137.045 278.254 137.588C278.677 138.132 279.265 138.545 280.016 138.827C280.768 139.109 281.644 139.25 282.644 139.25C283.645 139.25 284.514 139.109 285.252 138.827C285.991 138.552 286.565 138.142 286.974 137.599C287.384 137.062 287.588 136.4 287.588 135.615C287.588 134.803 287.377 134.125 286.954 133.581C286.531 133.037 285.947 132.628 285.202 132.353C284.457 132.077 283.604 131.94 282.644 131.94C281.678 131.94 280.815 132.077 280.057 132.353C279.305 132.635 278.711 133.047 278.274 133.591C277.845 134.142 277.63 134.816 277.63 135.615ZM274.69 148.964C274.69 148.353 274.905 147.83 275.334 147.393C275.764 146.957 276.288 146.742 276.905 146.749C277.509 146.742 278.026 146.957 278.456 147.393C278.885 147.83 279.1 148.353 279.1 148.964C279.1 149.555 278.885 150.068 278.456 150.505C278.026 150.948 277.509 151.172 276.905 151.179C276.496 151.172 276.123 151.065 275.787 150.857C275.452 150.656 275.183 150.387 274.982 150.051C274.787 149.723 274.69 149.36 274.69 148.964Z" fill="white"/>
</g>
<path d="M309 0.886075C324.17 0.886075 336.468 13.1841 336.468 28.3544L336.468 531.646C336.468 546.816 324.17 559.114 309 559.114L29 559.114C13.8297 559.114 1.53168 546.816 1.53168 531.646L1.53171 28.3544C1.53171 13.1841 13.8297 0.886062 29.0001 0.886062L309 0.886075Z" stroke="url(#paint1_linear_1_13634)" stroke-opacity="0.3" stroke-width="1.77215"/>
</g>
<defs>
<filter id="filter0_b_1_13634" x="-20.6202" y="-21.2658" width="379.241" height="602.532" filterUnits="userSpaceOnUse" color-interpolation-filters="sRGB">
<feFlood flood-opacity="0" result="BackgroundImageFix"/>
<feGaussianBlur in="BackgroundImageFix" stdDeviation="10.6329"/>
<feComposite in2="SourceAlpha" operator="in" result="effect1_backgroundBlur_1_13634"/>
<feBlend mode="normal" in="SourceGraphic" in2="effect1_backgroundBlur_1_13634" result="shape"/>
</filter>
<filter id="filter1_f_1_13634" x="-144.671" y="-255.19" width="737.215" height="737.215" filterUnits="userSpaceOnUse" color-interpolation-filters="sRGB">
<feFlood flood-opacity="0" result="BackgroundImageFix"/>
<feBlend mode="normal" in="SourceGraphic" in2="BackgroundImageFix" result="shape"/>
<feGaussianBlur stdDeviation="113.418" result="effect1_foregroundBlur_1_13634"/>
</filter>
<linearGradient id="paint0_linear_1_13634" x1="337.354" y1="27.9775" x2="-68.1557" y2="604.907" gradientUnits="userSpaceOnUse">
<stop stop-color="white" stop-opacity="0.3"/>
<stop offset="1" stop-color="white" stop-opacity="0"/>
</linearGradient>
<linearGradient id="paint1_linear_1_13634" x1="323.136" y1="-3.05104e-07" x2="-19.7666" y2="547.209" gradientUnits="userSpaceOnUse">
<stop stop-color="white"/>
<stop offset="1" stop-color="white" stop-opacity="0.2"/>
</linearGradient>
<clipPath id="clip0_1_13634">
<path d="M309 -1.23941e-06C324.66 -5.54903e-07 337.354 12.6947 337.354 28.3544L337.354 531.646C337.354 547.305 324.66 560 309 560L29 560C13.3403 560 0.645606 547.305 0.645607 531.646L0.645629 28.3544C0.645629 12.6947 13.3403 -1.41631e-05 29.0001 -1.34786e-05L309 -1.23941e-06Z" fill="white"/>
</clipPath>
</defs>
</svg>
