<svg width="572" height="449" viewBox="0 0 572 449" fill="none" xmlns="http://www.w3.org/2000/svg">
<g filter="url(#filter0_b_1_13633)">
<g clip-path="url(#clip0_1_13633)">
<path d="M267.043 14.8227C280.605 6.99286 297.946 11.6395 305.776 25.2012L557.421 461.064C565.251 474.626 560.605 491.967 547.043 499.797L304.556 639.797C290.994 647.627 273.653 642.98 265.823 629.418L14.1774 193.556C6.34756 179.994 10.9941 162.653 24.5559 154.823L267.043 14.8227Z" fill="black" fill-opacity="0.1"/>
<path d="M267.043 14.8227C280.605 6.99286 297.946 11.6395 305.776 25.2012L557.421 461.064C565.251 474.626 560.605 491.967 547.043 499.797L304.556 639.797C290.994 647.627 273.653 642.98 265.823 629.418L14.1774 193.556C6.34756 179.994 10.9941 162.653 24.5559 154.823L267.043 14.8227Z" fill="url(#paint0_linear_1_13633)"/>
<g filter="url(#filter1_f_1_13633)">
<path opacity="0.3" d="M179.199 32.7987C247.007 -6.35056 333.714 16.8824 372.863 84.6909L250.085 155.577L179.199 32.7987Z" fill="#EE46BC"/>
<path opacity="0.3" d="M372.863 84.691C412.012 152.5 388.779 239.206 320.971 278.355L250.085 155.577L372.863 84.691Z" fill="#EF6820"/>
<path opacity="0.3" d="M179.199 32.7988L250.085 155.577L127.307 226.463C88.1572 158.655 111.39 71.9481 179.199 32.7988Z" fill="#2E90FA"/>
<path opacity="0.3" d="M250.085 155.577L320.971 278.355C253.162 317.505 166.456 294.272 127.307 226.463L250.085 155.577Z" fill="#17B26A"/>
</g>
<path d="M49.288 179.685L64.1441 171.108L60.1973 168.95L63.058 167.299L66.968 169.478L68.4779 172.093L50.7978 182.301L49.288 179.685ZM55.345 190.148L57.6358 188.842L68.9805 192.556C69.8881 192.862 70.6553 192.981 71.2822 192.914C71.9138 192.855 72.4793 192.681 72.9786 192.393C73.6088 192.029 74.0933 191.564 74.4319 190.997C74.7787 190.426 74.9577 189.809 74.9688 189.148C74.9799 188.487 74.8012 187.837 74.4326 187.199C74.0545 186.544 73.5611 186.048 72.9523 185.712C72.3565 185.38 71.7221 185.217 71.0492 185.223C70.3764 185.23 69.7476 185.407 69.163 185.755L67.646 183.128C68.792 182.466 69.9435 182.145 71.1007 182.165C72.2708 182.188 73.3596 182.514 74.367 183.144C75.3827 183.769 76.2284 184.667 76.9042 185.837C77.5469 186.95 77.8697 188.095 77.8726 189.272C77.8837 190.445 77.5978 191.537 77.015 192.55C76.4369 193.572 75.5872 194.406 74.4658 195.054C73.6554 195.521 72.9065 195.812 72.2188 195.925C71.5312 196.039 70.823 196.022 70.0943 195.875C69.3657 195.728 68.5346 195.499 67.6013 195.186L58.8663 192.306L59.44 191.598L64.6926 200.696L62.2493 202.107L55.345 190.148ZM68.5889 213.881C68.0833 213.005 67.772 212.088 67.6552 211.13C67.5466 210.167 67.6362 209.225 67.924 208.306C68.2165 207.395 68.707 206.572 69.3954 205.836L71.5149 207.919C70.8907 208.596 70.5441 209.347 70.4751 210.173C70.4143 210.994 70.5959 211.762 71.0199 212.478C71.4014 213.119 71.8813 213.601 72.4595 213.922C73.0377 214.243 73.6568 214.398 74.3168 214.388C74.985 214.374 75.6464 214.177 76.3013 213.799C77.2835 213.232 77.9166 212.457 78.2006 211.475C78.4894 210.501 78.3502 209.522 77.7831 208.54C77.6224 208.262 77.4161 207.999 77.1641 207.752C76.9169 207.512 76.6545 207.304 76.377 207.126L77.7082 204.753L86.822 207.807L86.2412 208.502L81.2792 199.908L83.7225 198.497L89.8612 209.13L87.418 210.541L79.4418 208.237L80.2625 207.731C80.9052 208.844 81.2132 209.954 81.1864 211.061C81.1679 212.163 80.8606 213.181 80.2645 214.114C79.6814 215.051 78.8659 215.822 77.8182 216.427C76.6887 217.079 75.5324 217.392 74.3494 217.365C73.1711 217.347 72.0748 217.036 71.0604 216.432C70.0507 215.837 69.2269 214.986 68.5889 213.881ZM80.6275 233.967L83.7092 232.188L79.1016 224.207L81.5326 222.804L97.0174 221.525L98.7116 224.459L83.2268 225.738L86.1402 230.784L90.9286 228.02L92.4313 230.623L87.643 233.387L88.6567 235.143L86.2257 236.546L85.212 234.791L82.1303 236.57L80.6275 233.967ZM93.7164 256.638L108.573 248.06L104.626 245.903L107.486 244.251L111.396 246.43L112.906 249.045L95.2262 259.253L93.7164 256.638ZM99.7734 267.1L102.064 265.794L113.409 269.509C114.316 269.814 115.084 269.933 115.711 269.866C116.342 269.807 116.908 269.633 117.407 269.345C118.037 268.981 118.522 268.516 118.86 267.949C119.207 267.378 119.386 266.762 119.397 266.1C119.408 265.439 119.23 264.789 118.861 264.151C118.483 263.496 117.99 263.001 117.381 262.664C116.785 262.332 116.151 262.169 115.478 262.175C114.805 262.182 114.176 262.359 113.591 262.708L112.074 260.08C113.22 259.419 114.372 259.098 115.529 259.117C116.699 259.14 117.788 259.466 118.795 260.096C119.811 260.721 120.657 261.619 121.333 262.789C121.975 263.903 122.298 265.048 122.301 266.225C122.312 267.397 122.026 268.49 121.443 269.503C120.865 270.524 120.016 271.358 118.894 272.006C118.084 272.474 117.335 272.764 116.647 272.878C115.96 272.991 115.251 272.974 114.523 272.827C113.794 272.68 112.963 272.451 112.03 272.138L103.295 269.258L103.868 268.551L109.121 277.648L106.678 279.059L99.7734 267.1ZM113.017 290.833C112.512 289.958 112.2 289.04 112.084 288.082C111.975 287.119 112.065 286.178 112.352 285.258C112.645 284.347 113.135 283.524 113.824 282.788L115.943 284.871C115.319 285.548 114.972 286.3 114.903 287.125C114.843 287.946 115.024 288.714 115.448 289.43C115.83 290.072 116.31 290.553 116.888 290.874C117.466 291.195 118.085 291.351 118.745 291.341C119.413 291.326 120.075 291.13 120.73 290.752C121.712 290.184 122.345 289.41 122.629 288.427C122.918 287.453 122.779 286.475 122.212 285.492C122.051 285.214 121.845 284.951 121.593 284.704C121.345 284.465 121.083 284.256 120.805 284.078L122.137 281.705L131.25 284.759L130.67 285.455L125.708 276.86L128.151 275.45L134.29 286.082L131.846 287.493L123.87 285.19L124.691 284.683C125.334 285.796 125.642 286.906 125.615 288.013C125.596 289.115 125.289 290.133 124.693 291.066C124.11 292.003 123.294 292.774 122.247 293.379C121.117 294.031 119.961 294.344 118.778 294.318C117.6 294.299 116.503 293.988 115.489 293.384C114.479 292.789 113.655 291.938 113.017 290.833ZM125.056 310.919L128.138 309.14L123.53 301.159L125.961 299.756L141.446 298.477L143.14 301.411L127.655 302.69L130.569 307.736L135.357 304.972L136.86 307.575L132.071 310.339L133.085 312.095L130.654 313.499L129.64 311.743L126.559 313.522L125.056 310.919ZM138.145 333.59L153.001 325.013L149.054 322.855L151.915 321.203L155.825 323.382L157.335 325.997L139.655 336.205L138.145 333.59ZM144.202 344.053L146.493 342.746L157.837 346.461C158.745 346.766 159.512 346.885 160.139 346.818C160.771 346.759 161.336 346.585 161.835 346.297C162.466 345.933 162.95 345.468 163.289 344.901C163.636 344.33 163.814 343.714 163.826 343.053C163.837 342.391 163.658 341.742 163.289 341.103C162.911 340.448 162.418 339.953 161.809 339.617C161.213 339.284 160.579 339.121 159.906 339.128C159.233 339.134 158.604 339.312 158.02 339.66L156.503 337.033C157.649 336.371 158.8 336.05 159.957 336.069C161.128 336.092 162.216 336.419 163.224 337.048C164.24 337.673 165.085 338.571 165.761 339.742C166.404 340.855 166.727 342 166.729 343.177C166.74 344.349 166.455 345.442 165.872 346.455C165.294 347.476 164.444 348.311 163.323 348.958C162.512 349.426 161.763 349.717 161.076 349.83C160.388 349.943 159.68 349.926 158.951 349.779C158.222 349.633 157.391 349.403 156.458 349.091L147.723 346.21L148.297 345.503L153.549 354.601L151.106 356.011L144.202 344.053ZM157.446 367.786C156.94 366.91 156.629 365.993 156.512 365.034C156.403 364.071 156.493 363.13 156.781 362.211C157.073 361.3 157.564 360.476 158.252 359.74L160.372 361.824C159.747 362.501 159.401 363.252 159.332 364.077C159.271 364.898 159.453 365.667 159.877 366.382C160.258 367.024 160.738 367.505 161.316 367.826C161.895 368.147 162.514 368.303 163.174 368.293C163.842 368.278 164.503 368.082 165.158 367.704C166.14 367.137 166.773 366.362 167.057 365.379C167.346 364.405 167.207 363.427 166.64 362.445C166.479 362.166 166.273 361.903 166.021 361.656C165.774 361.417 165.511 361.208 165.234 361.03L166.565 358.657L175.679 361.712L175.098 362.407L170.136 353.812L172.579 352.402L178.718 363.034L176.275 364.445L168.299 362.142L169.119 361.635C169.762 362.748 170.07 363.858 170.043 364.965C170.025 366.067 169.717 367.085 169.121 368.019C168.538 368.955 167.723 369.726 166.675 370.331C165.545 370.983 164.389 371.296 163.206 371.27C162.028 371.252 160.932 370.941 159.917 370.337C158.908 369.741 158.084 368.891 157.446 367.786ZM169.484 387.871L172.566 386.092L167.958 378.112L170.389 376.708L185.874 375.429L187.568 378.364L172.084 379.642L174.997 384.689L179.785 381.924L181.288 384.527L176.5 387.292L177.513 389.047L175.082 390.451L174.069 388.695L170.987 390.474L169.484 387.871ZM182.573 410.542L197.429 401.965L193.482 399.807L196.343 398.156L200.253 400.335L201.763 402.95L184.083 413.157L182.573 410.542ZM188.63 421.005L190.921 419.699L202.266 423.413C203.173 423.719 203.941 423.838 204.567 423.77C205.199 423.711 205.764 423.538 206.264 423.249C206.894 422.885 207.378 422.42 207.717 421.854C208.064 421.282 208.243 420.666 208.254 420.005C208.265 419.344 208.086 418.694 207.718 418.055C207.34 417.401 206.846 416.905 206.238 416.569C205.642 416.236 205.007 416.073 204.334 416.08C203.662 416.086 203.033 416.264 202.448 416.612L200.931 413.985C202.077 413.323 203.229 413.002 204.386 413.022C205.556 413.045 206.645 413.371 207.652 414.001C208.668 414.626 209.514 415.523 210.189 416.694C210.832 417.807 211.155 418.952 211.158 420.129C211.169 421.301 210.883 422.394 210.3 423.407C209.722 424.429 208.872 425.263 207.751 425.91C206.941 426.378 206.192 426.669 205.504 426.782C204.816 426.895 204.108 426.879 203.38 426.732C202.651 426.585 201.82 426.355 200.886 426.043L192.152 423.163L192.725 422.455L197.978 431.553L195.535 432.964L188.63 421.005ZM201.874 444.738C201.368 443.862 201.057 442.945 200.94 441.986C200.832 441.023 200.921 440.082 201.209 439.163C201.502 438.252 201.992 437.429 202.681 436.693L204.8 438.776C204.176 439.453 203.829 440.204 203.76 441.03C203.699 441.851 203.881 442.619 204.305 443.334C204.687 443.976 205.167 444.458 205.745 444.779C206.323 445.1 206.942 445.255 207.602 445.245C208.27 445.231 208.932 445.034 209.586 444.656C210.569 444.089 211.202 443.314 211.486 442.332C211.775 441.357 211.635 440.379 211.068 439.397C210.908 439.119 210.701 438.856 210.449 438.608C210.202 438.369 209.94 438.16 209.662 437.982L210.993 435.609L220.107 438.664L219.526 439.359L214.564 430.765L217.008 429.354L223.146 439.987L220.703 441.397L212.727 439.094L213.548 438.587C214.19 439.701 214.498 440.811 214.472 441.917C214.453 443.02 214.146 444.037 213.55 444.971C212.967 445.908 212.151 446.679 211.103 447.284C209.974 447.936 208.818 448.249 207.635 448.222C206.456 448.204 205.36 447.893 204.346 447.289C203.336 446.693 202.512 445.843 201.874 444.738ZM213.913 464.824L216.994 463.044L212.387 455.064L214.818 453.66L230.303 452.382L231.997 455.316L216.512 456.595L219.425 461.641L224.214 458.876L225.717 461.479L220.928 464.244L221.942 466L219.511 467.403L218.497 465.647L215.415 467.427L213.913 464.824Z" fill="white"/>
<path d="M93.0753 157.102C92.3097 155.776 91.9461 154.48 91.9844 153.213C92.0288 151.943 92.4263 150.76 93.1767 149.664C93.9306 148.574 94.9921 147.634 96.361 146.843C97.73 146.053 99.075 145.604 100.396 145.496C101.721 145.394 102.941 145.643 104.057 146.243C105.178 146.84 106.122 147.801 106.888 149.127C107.65 150.447 108.009 151.742 107.964 153.012C107.929 154.284 107.535 155.465 106.781 156.555C106.027 157.645 104.966 158.586 103.597 159.376C102.228 160.166 100.883 160.616 99.5617 160.723C98.2407 160.831 97.0175 160.584 95.892 159.981C94.7762 159.382 93.8373 158.422 93.0753 157.102ZM94.9077 156.044C95.4377 156.99 96.0935 157.651 96.8751 158.026C97.6663 158.405 98.5329 158.53 99.4749 158.404C100.423 158.274 101.404 157.917 102.416 157.332C103.429 156.747 104.223 156.08 104.797 155.331C105.378 154.578 105.699 153.767 105.761 152.896C105.827 152.032 105.591 151.128 105.055 150.185C104.525 149.239 103.868 148.575 103.083 148.193C102.301 147.818 101.436 147.695 100.488 147.825C99.54 147.955 98.5577 148.309 97.5413 148.888C96.5248 149.466 95.7264 150.132 95.1459 150.885C94.5716 151.634 94.2534 152.444 94.1913 153.314C94.1328 154.191 94.3716 155.101 94.9077 156.044ZM98.6651 166.146L111.925 158.49L113.036 160.415L101.59 167.023L105.057 173.027L103.243 174.074L98.6651 166.146ZM104.783 176.743L118.043 169.087L119.154 171.011L105.894 178.667L104.783 176.743ZM109.819 185.466L120.591 173.5L121.745 175.499L112.549 185.707L126.014 182.893L127.168 184.891L111.42 188.237L109.819 185.466ZM115.348 195.041L128.608 187.385L129.719 189.309L116.459 196.965L115.348 195.041ZM118.055 199.73L133.803 196.384L135.404 199.156L124.632 211.121L123.478 209.123L133.286 198.168L133.574 198.666L119.209 201.729L118.055 199.73ZM122.34 200.24L124.145 199.198L128.143 206.123L126.338 207.165L122.34 200.24ZM128.777 218.302L142.038 210.646L145.132 216.005C145.206 216.134 145.292 216.297 145.39 216.495C145.493 216.689 145.58 216.88 145.648 217.07C145.957 217.874 146.06 218.633 145.956 219.348C145.857 220.068 145.583 220.721 145.136 221.307C144.688 221.893 144.108 222.391 143.396 222.803C142.34 223.412 141.273 223.668 140.193 223.571C139.12 223.471 138.177 222.935 137.362 221.964L136.818 221.235L134.649 217.478L129.889 220.226L128.777 218.302ZM133.254 226.055L137.14 220.325L138.759 221.98L134.525 228.256L133.254 226.055ZM136.473 216.425L138.413 219.786C138.484 219.909 138.568 220.04 138.665 220.181C138.766 220.327 138.871 220.459 138.98 220.576C139.299 220.916 139.65 221.135 140.034 221.232C140.424 221.326 140.812 221.332 141.197 221.248C141.583 221.165 141.938 221.029 142.264 220.841C142.589 220.653 142.881 220.415 143.14 220.126C143.405 219.834 143.591 219.498 143.699 219.116C143.812 218.732 143.802 218.316 143.667 217.87C143.626 217.714 143.567 217.555 143.491 217.395C143.418 217.24 143.346 217.102 143.275 216.979L141.335 213.618L136.473 216.425ZM136.225 231.201L149.485 223.545L150.596 225.47L144.877 228.771L148.705 235.401L154.424 232.1L155.54 234.033L142.28 241.689L141.164 239.755L146.891 236.448L143.063 229.818L137.336 233.125L136.225 231.201ZM146.15 248.392L151.629 245.229L156.821 236.252L158.118 238.499L154.403 244.929L161.829 244.926L163.126 247.173L152.756 247.181L147.277 250.344L146.15 248.392ZM151.14 257.035L164.4 249.379L169.291 257.851L167.477 258.898L163.697 252.351L159.977 254.499L163.119 259.941L161.305 260.988L158.163 255.546L154.065 257.912L157.845 264.459L156.031 265.506L151.14 257.035Z" fill="white"/>
<path d="M230.643 395.376C230.122 394.473 229.858 393.562 229.85 392.641C229.848 391.717 230.079 390.856 230.543 390.056C231.01 389.263 231.694 388.605 232.597 388.084L237.164 385.447C238.066 384.926 238.978 384.662 239.898 384.655C240.822 384.653 241.681 384.886 242.475 385.353C243.274 385.816 243.934 386.499 244.455 387.401C244.976 388.304 245.238 389.217 245.239 390.141C245.247 391.062 245.017 391.918 244.55 392.712C244.087 393.511 243.404 394.172 242.502 394.693L237.934 397.33C237.032 397.851 236.119 398.112 235.195 398.113C234.274 398.121 233.414 397.893 232.614 397.43C231.821 396.963 231.164 396.278 230.643 395.376ZM232.485 394.313C232.768 394.804 233.142 395.181 233.605 395.446C234.079 395.713 234.584 395.851 235.121 395.86C235.665 395.865 236.185 395.724 236.682 395.437L241.507 392.652C241.999 392.368 242.374 391.991 242.635 391.522C242.902 391.048 243.035 390.542 243.035 390.002C243.044 389.464 242.907 388.95 242.623 388.459C242.339 387.968 241.961 387.589 241.488 387.322C241.024 387.058 240.52 386.923 239.977 386.917C239.44 386.908 238.926 387.046 238.434 387.329L233.609 390.115C233.112 390.402 232.73 390.782 232.463 391.256C232.202 391.725 232.067 392.229 232.058 392.766C232.059 393.306 232.201 393.822 232.485 394.313ZM237.959 408.048C237.463 407.189 237.219 406.299 237.227 405.377C237.242 404.452 237.488 403.581 237.966 402.765C238.448 401.955 239.143 401.288 240.052 400.763L244.278 398.323C245.242 397.766 246.204 397.477 247.165 397.454C248.13 397.437 249.02 397.668 249.837 398.146C250.656 398.631 251.336 399.339 251.874 400.273C252.278 400.972 252.526 401.705 252.616 402.472C252.707 403.238 252.62 403.996 252.357 404.745L250.227 404.097C250.407 403.657 250.482 403.192 250.453 402.702C250.433 402.214 250.299 401.755 250.051 401.325C249.732 400.773 249.32 400.364 248.815 400.099C248.316 399.83 247.786 399.699 247.224 399.704C246.666 399.715 246.144 399.861 245.659 400.141L243.228 401.544L243.434 400.922C244.151 401.016 244.817 401.261 245.431 401.66C246.046 402.058 246.539 402.579 246.911 403.224C247.386 404.046 247.617 404.892 247.602 405.76C247.597 406.63 247.372 407.439 246.928 408.187C246.488 408.94 245.856 409.555 245.033 410.03C244.205 410.508 243.332 410.734 242.416 410.706C241.509 410.681 240.656 410.437 239.857 409.974C239.067 409.513 238.434 408.871 237.959 408.048ZM239.81 406.98C240.087 407.459 240.455 407.827 240.915 408.085C241.375 408.344 241.869 408.476 242.397 408.482C242.924 408.489 243.427 408.354 243.906 408.077C244.385 407.801 244.754 407.433 245.012 406.973C245.274 406.519 245.408 406.028 245.414 405.5C245.421 404.973 245.286 404.469 245.009 403.991C244.733 403.512 244.363 403.14 243.899 402.876C243.439 402.618 242.945 402.485 242.417 402.479C241.89 402.472 241.387 402.607 240.908 402.884C240.435 403.157 240.07 403.523 239.811 403.983C239.553 404.444 239.418 404.939 239.405 405.47C239.399 405.998 239.534 406.501 239.81 406.98ZM257.935 411.386L259.057 413.329L243.755 417.449L242.633 415.506L257.935 411.386ZM247.512 423.935L249.23 422.955L257.739 425.741C258.419 425.97 258.995 426.06 259.465 426.009C259.939 425.965 260.363 425.835 260.737 425.618C261.21 425.345 261.573 424.997 261.827 424.572C262.087 424.143 262.222 423.681 262.23 423.185C262.238 422.689 262.104 422.202 261.828 421.723C261.544 421.232 261.174 420.86 260.718 420.608C260.271 420.359 259.795 420.236 259.29 420.241C258.786 420.246 258.314 420.379 257.876 420.641L256.738 418.67C257.597 418.174 258.461 417.933 259.329 417.948C260.206 417.965 261.023 418.209 261.779 418.682C262.54 419.151 263.175 419.824 263.681 420.702C264.164 421.537 264.406 422.395 264.408 423.278C264.416 424.157 264.202 424.977 263.765 425.737C263.331 426.503 262.694 427.129 261.853 427.614C261.245 427.965 260.683 428.183 260.167 428.268C259.652 428.353 259.121 428.34 258.574 428.23C258.028 428.12 257.404 427.948 256.704 427.714L250.153 425.553L250.583 425.023L254.523 431.846L252.69 432.904L247.512 423.935ZM256.662 440.443C256.163 439.578 255.892 438.711 255.849 437.843C255.816 436.978 256 436.176 256.4 435.438C256.804 434.705 257.414 434.104 258.231 433.632C258.992 433.193 259.791 432.968 260.629 432.959C261.467 432.95 262.271 433.194 263.041 433.691L262.356 434.037C262.38 433.27 262.565 432.583 262.909 431.975C263.263 431.369 263.766 430.878 264.417 430.503C265.172 430.067 265.927 429.864 266.681 429.895C267.436 429.926 268.14 430.162 268.796 430.602C269.454 431.048 270.014 431.67 270.475 432.468C270.936 433.266 271.193 434.059 271.247 434.847C271.3 435.634 271.152 436.363 270.801 437.032C270.451 437.7 269.898 438.253 269.143 438.689C268.492 439.065 267.823 439.259 267.134 439.271C266.446 439.284 265.752 439.096 265.052 438.706L265.681 438.306C265.741 439.204 265.556 440.019 265.127 440.75C264.704 441.477 264.112 442.06 263.35 442.5C262.534 442.971 261.706 443.196 260.866 443.173C260.026 443.15 259.238 442.905 258.502 442.438C257.772 441.968 257.159 441.303 256.662 440.443ZM258.495 439.385C258.906 440.097 259.433 440.563 260.075 440.781C260.723 440.997 261.421 440.888 262.17 440.456C262.919 440.023 263.362 439.472 263.5 438.804C263.647 438.137 263.514 437.445 263.099 436.727C262.684 436.009 262.15 435.544 261.496 435.332C260.851 435.123 260.154 435.235 259.406 435.667C258.657 436.1 258.213 436.65 258.076 437.319C257.944 437.984 258.084 438.673 258.495 439.385ZM264.941 435.664C265.292 436.271 265.726 436.676 266.243 436.876C266.769 437.08 267.343 437.003 267.963 436.645C268.583 436.287 268.936 435.829 269.024 435.271C269.12 434.716 268.993 434.134 268.643 433.526C268.292 432.919 267.85 432.515 267.317 432.315C266.79 432.112 266.217 432.189 265.597 432.547C264.977 432.905 264.623 433.363 264.536 433.921C264.455 434.475 264.59 435.056 264.941 435.664Z" fill="white"/>
<path d="M280.618 65.2699L282.486 68.5051L270.819 75.2412C269.54 75.9796 268.24 76.3268 266.92 76.2827C265.604 76.2445 264.358 75.8395 263.184 75.0679C262.016 74.293 261.012 73.1788 260.173 71.7255C259.331 70.2663 258.866 68.8371 258.779 67.4379C258.698 66.0353 258.97 64.7543 259.595 63.595C260.22 62.4358 261.172 61.4869 262.451 60.7485L274.119 54.0123L275.986 57.2475L264.589 63.8276C263.845 64.2572 263.276 64.8026 262.883 65.4638C262.493 66.1308 262.305 66.8593 262.32 67.6494C262.34 68.4361 262.586 69.2394 263.06 70.059C263.533 70.8787 264.105 71.494 264.776 71.9048C265.457 72.3181 266.182 72.5197 266.951 72.5096C267.72 72.4995 268.477 72.2796 269.221 71.85L280.618 65.2699ZM276.247 80.8182L268.399 85.3493L266.577 82.1926L279.971 74.4596L281.713 77.4767L279.437 78.7907L279.528 78.9477C280.455 78.8228 281.335 78.97 282.166 79.3893C283 79.8144 283.706 80.5269 284.284 81.5268C284.817 82.4511 285.085 83.3703 285.085 84.2846C285.089 85.2046 284.826 86.07 284.294 86.8808C283.765 87.6975 282.965 88.4117 281.892 89.0235L273.363 93.9472L271.541 90.7906L279.581 86.1487C280.476 85.6319 281.042 84.9949 281.28 84.2378C281.52 83.4866 281.406 82.704 280.936 81.8901C280.617 81.3378 280.211 80.9171 279.719 80.6279C279.235 80.3411 278.696 80.2065 278.102 80.2242C277.511 80.2476 276.893 80.4456 276.247 80.8182ZM292.472 96.1114L290.03 97.5211L285.585 89.8213L288.026 88.4116L292.472 96.1114ZM292.333 88.4599L294.155 91.6166L281.581 98.8764C281.156 99.1214 280.868 99.3733 280.715 99.6321C280.571 99.8933 280.521 100.155 280.564 100.417C280.606 100.679 280.703 100.941 280.854 101.203C280.968 101.4 281.087 101.572 281.21 101.718C281.336 101.87 281.436 101.983 281.51 102.056L279.349 104.013C279.194 103.878 278.991 103.674 278.74 103.4C278.492 103.132 278.233 102.778 277.963 102.337C277.483 101.56 277.191 100.779 277.087 99.9942C276.989 99.2061 277.111 98.465 277.454 97.7707C277.801 97.0822 278.395 96.4993 279.235 96.0218L292.333 88.4599ZM280.602 106.484L293.996 98.7514L295.818 101.908L282.424 109.641L280.602 106.484ZM296.813 99.241C296.524 98.741 296.442 98.2152 296.565 97.6634C296.694 97.1083 296.994 96.6949 297.465 96.423C297.942 96.1478 298.45 96.0947 298.989 96.2638C299.534 96.4296 299.951 96.7624 300.24 97.2624C300.532 97.7682 300.612 98.2957 300.479 98.845C300.356 99.3967 300.056 99.8102 299.579 100.085C299.109 100.357 298.6 100.41 298.055 100.245C297.519 100.081 297.105 99.7467 296.813 99.241ZM301.554 111.842L299.112 113.252L294.667 105.552L297.108 104.143L301.554 111.842ZM301.415 104.191L303.237 107.348L290.663 114.607C290.239 114.852 289.95 115.104 289.797 115.363C289.653 115.624 289.603 115.886 289.646 116.148C289.689 116.41 289.786 116.672 289.937 116.934C290.051 117.131 290.169 117.303 290.292 117.449C290.419 117.601 290.519 117.714 290.592 117.787L288.432 119.744C288.276 119.609 288.073 119.405 287.822 119.131C287.574 118.863 287.315 118.509 287.045 118.068C286.566 117.291 286.274 116.51 286.169 115.725C286.071 114.937 286.193 114.196 286.537 113.502C286.883 112.813 287.477 112.23 288.317 111.753L301.415 104.191ZM309.531 115.349L291.673 125.66L289.85 122.503L307.709 112.192L309.531 115.349ZM296.709 134.987C295.933 133.644 295.543 132.323 295.537 131.024C295.54 129.728 295.906 128.521 296.632 127.403C297.365 126.283 298.432 125.318 299.833 124.509C301.211 123.714 302.571 123.277 303.914 123.2C305.266 123.124 306.506 123.393 307.634 124.005C308.768 124.613 309.705 125.557 310.443 126.836C310.92 127.662 311.236 128.518 311.391 129.405C311.556 130.294 311.525 131.18 311.298 132.063C311.075 132.951 310.63 133.805 309.963 134.624C309.302 135.44 308.385 136.186 307.211 136.864L306.243 137.423L299.904 126.445L302.032 125.216L306.623 133.169C307.225 132.814 307.687 132.373 308.01 131.845C308.339 131.314 308.508 130.74 308.516 130.123C308.527 129.512 308.358 128.904 308.009 128.299C307.637 127.654 307.152 127.178 306.557 126.871C305.967 126.56 305.34 126.415 304.676 126.433C304.022 126.455 303.394 126.635 302.792 126.975L300.934 128.047C300.155 128.497 299.569 129.026 299.175 129.633C298.787 130.236 298.593 130.88 298.592 131.562C298.597 132.242 298.797 132.924 299.193 133.61C299.458 134.07 299.762 134.448 300.105 134.747C300.453 135.041 300.834 135.252 301.248 135.377C301.661 135.503 302.097 135.526 302.556 135.448L303.926 138.586C303.04 138.85 302.155 138.888 301.271 138.701C300.397 138.515 299.567 138.111 298.781 137.488C298 136.861 297.309 136.027 296.709 134.987ZM304.585 148.568C303.977 147.516 303.704 146.418 303.765 145.275C303.825 144.131 304.231 143.021 304.981 141.945C305.732 140.868 306.842 139.905 308.313 139.056C309.801 138.197 311.198 137.716 312.503 137.614C313.817 137.514 314.978 137.731 315.984 138.266C316.997 138.798 317.8 139.578 318.394 140.607C318.847 141.392 319.086 142.115 319.11 142.775C319.141 143.432 319.056 144.016 318.855 144.527C318.66 145.035 318.446 145.464 318.215 145.815L318.29 145.946L324.97 142.089L326.797 145.255L308.939 155.565L307.146 152.461L309.257 151.243L309.146 151.051C308.726 151.076 308.244 151.04 307.7 150.944C307.162 150.844 306.619 150.614 306.071 150.256C305.523 149.898 305.028 149.336 304.585 148.568ZM307.683 147.954C308.069 148.622 308.578 149.088 309.211 149.351C309.849 149.61 310.564 149.674 311.356 149.542C312.148 149.41 312.977 149.095 313.843 148.594C314.71 148.094 315.392 147.538 315.89 146.924C316.392 146.317 316.685 145.675 316.767 144.999C316.853 144.33 316.7 143.655 316.307 142.975C315.901 142.271 315.379 141.79 314.741 141.53C314.103 141.271 313.392 141.208 312.61 141.342C311.827 141.477 311.02 141.784 310.188 142.264C309.351 142.747 308.673 143.297 308.154 143.915C307.644 144.535 307.335 145.19 307.229 145.879C307.133 146.57 307.284 147.262 307.683 147.954ZM311.812 160.984C311.506 160.455 311.43 159.894 311.584 159.302C311.738 158.709 312.084 158.261 312.622 157.958C313.142 157.65 313.697 157.578 314.287 157.741C314.878 157.904 315.326 158.25 315.631 158.779C315.926 159.291 315.997 159.843 315.843 160.436C315.693 161.034 315.357 161.487 314.838 161.795C314.48 161.994 314.103 162.087 313.709 162.075C313.317 162.068 312.95 161.97 312.608 161.78C312.275 161.593 312.01 161.327 311.812 160.984Z" fill="white"/>
<g clip-path="url(#clip1_1_13633)">
<path d="M516.906 466.332C513.573 472.105 508.779 476.898 503.006 480.231C497.233 483.564 490.684 485.319 484.019 485.319M509.111 461.185C506.511 465.688 502.772 469.427 498.269 472.027C493.766 474.627 488.658 475.995 483.459 475.995M501.802 456.197C499.892 459.47 497.154 462.193 493.864 464.093C490.573 465.993 486.846 467.002 483.056 467.019M494.23 451.36C493.132 453.558 491.44 455.364 489.347 456.573C487.254 457.781 484.843 458.343 482.39 458.195" stroke="white" stroke-width="4.55696" stroke-linecap="round"/>
</g>
</g>
<path d="M267.486 15.5901C280.624 8.00491 297.423 12.5063 305.008 25.6442L556.654 461.507C564.239 474.645 559.738 491.444 546.6 499.03L304.113 639.03C290.975 646.615 274.176 642.113 266.59 628.975L14.9448 193.113C7.35961 179.975 11.861 163.175 24.9989 155.59L267.486 15.5901Z" stroke="url(#paint1_linear_1_13633)" stroke-opacity="0.3" stroke-width="1.77215"/>
</g>
<defs>
<filter id="filter0_b_1_13633" x="-21.2656" y="-20.6203" width="614.13" height="695.86" filterUnits="userSpaceOnUse" color-interpolation-filters="sRGB">
<feFlood flood-opacity="0" result="BackgroundImageFix"/>
<feGaussianBlur in="BackgroundImageFix" stdDeviation="10.6329"/>
<feComposite in2="SourceAlpha" operator="in" result="effect1_backgroundBlur_1_13633"/>
<feBlend mode="normal" in="SourceGraphic" in2="effect1_backgroundBlur_1_13633" result="shape"/>
</filter>
<filter id="filter1_f_1_13633" x="-170.415" y="-264.923" width="841" height="841" filterUnits="userSpaceOnUse" color-interpolation-filters="sRGB">
<feFlood flood-opacity="0" result="BackgroundImageFix"/>
<feBlend mode="normal" in="SourceGraphic" in2="BackgroundImageFix" result="shape"/>
<feGaussianBlur stdDeviation="113.418" result="effect1_foregroundBlur_1_13633"/>
</filter>
<linearGradient id="paint0_linear_1_13633" x1="305.587" y1="24.8748" x2="242.87" y2="727.265" gradientUnits="userSpaceOnUse">
<stop stop-color="white" stop-opacity="0.3"/>
<stop offset="1" stop-color="white" stop-opacity="0"/>
</linearGradient>
<linearGradient id="paint1_linear_1_13633" x1="279.285" y1="7.75452" x2="255.927" y2="653.103" gradientUnits="userSpaceOnUse">
<stop stop-color="white"/>
<stop offset="1" stop-color="white" stop-opacity="0.2"/>
</linearGradient>
<clipPath id="clip0_1_13633">
<path d="M267.043 14.8227C280.605 6.99286 297.946 11.6395 305.776 25.2012L557.421 461.064C565.251 474.626 560.605 491.967 547.043 499.797L304.556 639.797C290.994 647.627 273.653 642.98 265.823 629.418L14.1774 193.556C6.34756 179.994 10.9941 162.653 24.5559 154.823L267.043 14.8227Z" fill="white"/>
</clipPath>
<clipPath id="clip1_1_13633">
<rect width="35.443" height="42.5316" fill="white" transform="translate(505.461 441.952) rotate(60)"/>
</clipPath>
</defs>
</svg>
